<?xml version="1.0" encoding="UTF-8" standalone="no"?>
<!-- Created with Inkscape (http://www.inkscape.org/) -->

<svg
   width="170.20428mm"
   height="14.615384mm"
   viewBox="0 0 170.20428 14.615384"
   version="1.1"
   id="svg1"
   inkscape:export-filename="bitmap.svg"
   inkscape:export-xdpi="96"
   inkscape:export-ydpi="96"
   inkscape:version="1.4.3 (0d15f75, 2025-12-25)"
   sodipodi:docname="arum-logo-white.svg"
   xmlns:inkscape="http://www.inkscape.org/namespaces/inkscape"
   xmlns:sodipodi="http://sodipodi.sourceforge.net/DTD/sodipodi-0.dtd"
   xmlns="http://www.w3.org/2000/svg"
   xmlns:svg="http://www.w3.org/2000/svg"
   xmlns:rdf="http://www.w3.org/1999/02/22-rdf-syntax-ns#"
   xmlns:cc="http://creativecommons.org/ns#"
   xmlns:dc="http://purl.org/dc/elements/1.1/">
  <title
     id="title3">White Logo</title>
  <sodipodi:namedview
     id="namedview1"
     pagecolor="#ffffff"
     bordercolor="#000000"
     borderopacity="0.25"
     inkscape:showpageshadow="2"
     inkscape:pageopacity="0.0"
     inkscape:pagecheckerboard="0"
     inkscape:deskcolor="#d1d1d1"
     inkscape:document-units="mm"
     inkscape:zoom="0.44097222"
     inkscape:cx="-23.811024"
     inkscape:cy="-64.629921"
     inkscape:window-width="1366"
     inkscape:window-height="697"
     inkscape:window-x="-8"
     inkscape:window-y="-8"
     inkscape:window-maximized="1"
     inkscape:current-layer="layer1" />
  <defs
     id="defs1" />
  <g
     inkscape:label="Layer 1"
     inkscape:groupmode="layer"
     id="layer1"
     transform="translate(-23.9904,-21.843719)">
    <text
       xml:space="preserve"
       style="font-size:22.5778px;line-height:0;letter-spacing:0px;writing-mode:lr-tb;direction:ltr;white-space:pre;inline-size:169.166;display:inline;fill:#000000;stroke-width:0.264583"
       x="34.799999"
       y="27.599998"
       id="text1"
       transform="matrix(1.251351,0,0,1,-39.788315,73.8)" />
    <path
       d="m 31.802319,21.843719 c 2.227676,4.681131 4.455353,9.362261 6.683029,14.043392 -2.08634,0.02621 -4.547045,0.617625 -4.748532,-2.201807 -0.968494,-2.682125 -2.592439,-5.335104 -3.161763,-8.034979 0.409089,-1.268869 0.818177,-2.537737 1.227266,-3.806606 z M 27.557692,34.509865 C 29.925164,36.962465 25.925248,35.678386 23.9904,36 c 1.153189,-0.456721 2.0054,-1.902935 3.567292,-1.490135 z m 4.244627,-12.666146 c 0.523943,3.8406 -2.182632,7.043303 -3.332179,10.553456 -0.250267,1.548713 -2.372292,5.174061 -2.904623,2.915621 2.079582,-4.467233 4.266796,-9.152425 6.236802,-13.469077 z m 1.964268,9.731032 c -0.2013,1.91414 -3.835263,0.395617 -5.465786,0.880534 -0.95555,-1.68231 3.452787,-0.55722 4.832622,-0.880534 h 0.341611 z m 0.338667,2.935114 c 1.58333,-0.630387 6.543535,0.889766 5.006381,1.490135 -1.896461,-0.163681 -4.439387,0.319102 -5.95465,-0.225778 0.715692,0.106299 1.343656,-0.602798 0.948269,-1.264357 z M 44.898718,22.45332 c 0.19933,3.700353 -0.483192,7.536755 0.5334,11.119566 2.920409,4.537011 8.33103,-0.168885 6.872118,-4.40905 0,-2.236839 0,-4.473677 0,-6.710516 2.751581,-0.660681 1.001106,3.180692 1.490135,4.782563 0.1666,3.499297 0.274297,8.572721 -4.389971,8.970139 -5.332147,1.42037 -8.768474,-3.387869 -7.756886,-8.17991 0.436183,-1.649155 -0.887966,-5.058643 0.683223,-5.572792 0.855994,0 1.711987,0 2.567981,0 z m -3.206048,0 c 1.365934,2.734254 -3.500103,-0.954185 0,0 z m 4.538138,0 c -1.529452,2.355367 -2.440314,-0.371723 0,0 z m 6.118584,0 c 1.360869,2.745111 -3.438333,-0.95333 0,0 z m 2.777069,0 c -1.529179,2.359477 -2.438295,-0.381907 0,0 z m 7.238299,0 c 3.666304,-0.734589 9.542654,1.439883 6.609651,6.00005 -4.544058,1.242872 1.608701,4.612984 2.91818,7.185385 1.392626,1.022203 -6.915274,0.311842 -6.615295,-3.364092 -0.883037,-2.557729 -3.392117,-3.132744 0.361245,-3.90596 2.621497,-4.318974 -1.820998,-4.151366 -3.273781,-5.915383 z m 0.225778,0 c 0,4.51556 0,9.03112 0,13.54668 -2.660252,0.544156 -3.955455,-0.276737 -3.273782,-3.074505 0,-3.490725 0,-6.98145 0,-10.472175 1.091261,0 2.182521,0 3.273782,0 z M 59.38449,34.577599 c 0.52202,2.417 -2.980937,1.495507 -0.04516,0 z m 0,-10.724456 c -3.37417,-1.516755 0.792738,-2.53216 0,0 z m 3.160892,10.724456 c 1.690128,1.20379 1.50005,1.936071 -0.08586,1.08186 0.02862,-0.36062 0.05724,-0.72124 0.08586,-1.08186 z M 77.935105,22.45332 c 0.19933,3.700353 -0.483192,7.536756 0.533401,11.119566 2.920408,4.537011 8.33103,-0.168885 6.872118,-4.40905 0,-2.236839 0,-4.473677 0,-6.710516 2.751581,-0.660681 1.001106,3.180692 1.490135,4.782563 0.1666,3.499297 0.274297,8.572721 -4.389971,8.970139 -5.332147,1.420371 -8.768474,-3.387869 -7.756886,-8.17991 0.436183,-1.649155 -0.887966,-5.058643 0.683223,-5.572792 0.855994,0 1.711987,0 2.56798,0 z m -3.206048,0 c 1.365942,2.734255 -3.500084,-0.954184 0,0 z m 4.538138,0 c -1.529452,2.355368 -2.440313,-0.371723 0,0 z m 6.118584,0 c 1.360877,2.745112 -3.438314,-0.953329 0,0 z m 2.77707,0 c -1.529179,2.359476 -2.438295,-0.381907 0,0 z m 17.437021,-0.293512 c 0.87902,2.981853 -1.90616,5.057967 -3.09695,7.528194 -1.31822,2.207238 -3.079349,4.481632 -3.811858,6.740976 -1.849135,-1.907503 0.415989,-3.575521 1.297784,-5.32406 1.870344,-2.981704 3.740684,-5.963407 5.611024,-8.94511 z M 91.714522,34.555021 c 1.051028,2.51376 -4.5261,1.407876 -0.603956,0.51929 -0.156891,-0.671797 0.287863,-0.505982 0.603956,-0.51929 z m 0.970845,0.316089 c 2.565302,1.866577 -1.029605,1.651969 0,0 z m 0.361245,-12.711302 c 1.805458,2.36367 0.196517,5.783021 0.163149,8.61043 -0.712223,1.564625 0.498717,5.300988 -1.662118,5.229762 -0.903704,-1.025722 0.422407,-3.990267 0.364117,-5.751076 0.378284,-2.696372 0.756568,-5.392744 1.134852,-8.089116 z m 0.180623,0 c 2.227676,3.333989 4.455353,6.667977 6.683029,10.001966 -0.665997,1.611691 -0.895629,6.061548 -2.348306,2.556569 -1.539308,-2.594145 -3.674638,-5.042754 -4.840984,-7.727969 0.168754,-1.610189 0.337507,-3.220377 0.506261,-4.830566 z m 12.575835,0 c 0.66228,4.613397 1.32457,9.226795 1.98685,13.840192 -2.34123,0.318728 -4.29118,0.190131 -3.81803,-2.708595 -0.21773,-2.726677 -1.43145,-5.587142 0.32282,-8.048927 0.54391,-0.939261 0.75842,-2.465887 1.50836,-3.08267 z m 1.35467,12.395213 c 3.28542,0.786421 1.29037,2.573809 0,0.761756 0,-0.253919 0,-0.507837 0,-0.761756 z m -2.98027,0.316089 c 1.02029,1.829003 -2.36011,1.406613 0,0 z m 11.68615,-12.711302 c 2.78731,-0.682588 5.25227,0.731082 3.6576,3.183474 -2.20812,-5.700061 -8.28362,0.913032 -2.04936,2.364259 5.85453,1.642387 3.55839,10.142807 -2.5678,8.546463 -4.79037,1.274263 -3.14204,-8.336752 -1.6256,-1.964269 4.65923,3.860775 7.3731,-2.887999 2.00539,-4.083176 -4.37456,-1.406872 -4.91295,-8.043567 0.57977,-8.046751 z m 4.15431,0.2032 c -1.71805,1.288909 -3.66503,-0.531691 -0.0471,0 z m 17.98372,0.09031 c 0,4.515561 0,9.031121 0,13.546682 -2.66297,0.561928 -3.89668,-0.305414 -3.22863,-3.074505 0,-3.490725 0,-6.98145 0,-10.472175 1.07621,-1e-6 2.15242,-1e-6 3.22863,-2e-6 z m -9.18917,0 c 0,4.515561 0,9.031121 0,13.546682 -2.66161,0.553042 -3.92605,-0.291087 -3.2512,-3.074505 0,-3.490725 0,-6.98145 0,-10.472175 1.08373,-1e-6 2.16747,-1e-6 3.2512,-2e-6 z m 6.14116,6.344362 c -0.17407,1.948896 -3.83025,0.415683 -5.46579,0.903112 -2.73801,-1.009576 2.3134,-1.034593 3.56238,-0.903112 0.63447,0 1.26894,0 1.90341,0 z m -9.32463,5.779917 c 0.30468,2.412076 -2.90918,1.481091 -0.0677,2e-6 z m 3.13832,0 c 3.31674,1.519602 -0.65212,2.577979 0,0 z m 0,-10.701878 c -0.31337,-2.409141 2.88859,-1.477278 0.0452,2e-6 z m -3.13832,0 c -3.34715,-1.480723 0.62106,-2.614438 0,0 z m 9.18917,10.701878 c 0.31819,2.404553 -2.88849,1.481904 -0.0677,2e-6 z m 3.11573,0 c 3.35434,1.501022 -0.63033,2.598153 0,0 z m 0.0226,-10.701878 c -0.27888,-2.410748 2.8747,-1.485358 0.0677,2e-6 z m -3.13831,0 c -3.45493,-1.30303 0.74608,-2.610149 0,0 z m 12.15862,-1.422399 c 0,4.51556 0,9.03112 0,13.54668 -2.66161,0.553042 -3.92605,-0.291087 -3.2512,-3.074505 0,-3.490725 0,-6.98145 0,-10.472175 1.08373,0 2.16747,0 3.2512,0 z m 5.28321,12.643568 c 1.27703,1.927847 -3.36147,0.433409 -4.60488,0.903112 -2.39535,-1.103426 2.53194,-0.981434 3.71747,-0.903112 0.2958,0 0.59161,0 0.88741,0 z m -0.76765,-6.254051 c 0.29302,1.501783 -4.5262,1.320421 -4.56071,0.219889 0.99906,-0.506285 3.19682,-0.07701 4.56071,-0.219889 z m 1.016,-6.389517 c -0.17407,1.948896 -3.83025,0.415683 -5.46579,0.903112 -0.3334,-1.852841 3.54123,-0.483093 5.01325,-0.903112 h 0.34162 z m 1.19663,9.392365 c -0.60989,1.825878 -0.0296,5.112905 -2.90763,4.154315 -5.23548,0.123369 3.65799,-1.783992 2.90763,-4.154315 z m -2.21263,-2.144891 c 1.42082,4.234383 -3.8432,-1.30737 -0.23363,-10e-7 z m 0,-2.799648 c 1.26523,2.658922 -3.96626,2.549496 -0.34431,0.846664 0.67057,0.17195 -0.3098,-1.134694 0.34431,-0.846664 z m 1.016,-3.58987 c 0.58284,4.440313 -1.00089,0.130775 -1.93874,-3e-6 0.64625,1e-6 1.29249,2e-6 1.93874,3e-6 z m 0,-1.196623 c -0.58473,1.225765 -4.13693,-0.131549 0,0 z m -8.73761,12.462946 c 0.56117,2.425226 -3.01759,1.502475 -0.0452,0 z m 0,-10.701878 c -3.42759,-1.563872 0.83431,-2.55291 0,0 z m 17.24185,-1.422401 c 0,4.51556 0,9.03112 0,13.54668 -2.66161,0.553042 -3.92605,-0.291087 -3.2512,-3.074505 0,-3.490725 0,-6.98145 0,-10.472175 1.08373,0 2.16747,0 3.2512,0 z m -3.18347,12.124279 c 0.29196,2.449628 -3.04855,1.46252 -0.0677,0 z m 3.13831,0 c 3.47426,1.554661 -0.59298,2.572712 0,0 z m 0,-10.701878 c -0.29401,-2.442779 3.01272,-1.458693 0.0451,0 z m -3.13831,0 c -3.52542,-1.499426 0.57639,-2.617047 0,0 z m 12.24894,-1.422401 c 0,4.51556 0,9.03112 0,13.54668 -2.66161,0.553042 -3.92605,-0.291087 -3.2512,-3.074505 0,-3.490725 0,-6.98145 0,-10.472175 1.08373,0 2.16747,0 3.2512,0 z m 5.26063,12.643568 c 1.33028,1.919046 -3.3424,0.439277 -4.5823,0.903112 -2.39535,-1.103426 2.53194,-0.981434 3.71747,-0.903112 0.28828,0 0.57655,0 0.86483,0 z m 1.49014,-3.251203 c -0.62019,1.824816 -0.0563,5.111016 -2.93021,4.154315 -5.23491,0.135055 3.66904,-1.814515 2.93021,-4.154315 z m -9.95681,2.731914 c 0.56118,2.425227 -3.0176,1.502478 -0.0452,0 z m 3.16089,-10.701878 c -0.29779,-2.416168 2.90003,-1.479227 0.0452,0 z m -3.16089,0 c -3.35464,-1.523609 0.63131,-2.581045 0,0 z m 19.55611,-1.422401 c 6.83262,-1.230607 10.74214,8.587285 4.97277,12.283734 -3.00746,1.855465 -6.64168,1.103763 -9.98504,1.262946 -0.0967,-1.896372 3.3122,-0.458126 4.7413,-0.903112 6.6223,-0.0926 5.98209,-12.793616 -0.83832,-11.763034 -1.29355,0.228689 -6.16071,-0.07256 -3.14912,-0.880534 1.41947,0 2.83894,0 4.25841,0 z m -2.82222,0 c 0,4.51556 0,9.03112 0,13.54668 -2.66161,0.553038 -3.92606,-0.29108 -3.25121,-3.074505 0,-3.490725 0,-6.98145 0,-10.472175 1.08374,0 2.16747,0 3.25121,0 z m -3.18347,12.101701 c 0.30358,2.458915 -3.01347,1.505688 -0.0677,0 z m -0.0226,-10.6793 c -3.44079,-1.532584 0.6125,-2.581417 0,0 z"
       id="text3"
       style="font-weight:bold;font-size:22.5778px;line-height:0;font-family:Cinzel;-inkscape-font-specification:'Cinzel Bold';letter-spacing:1.32292px;fill:#ffffff;fill-opacity:1;stroke-width:0.264583"
       aria-label="aurumsheild" />
  </g>
  <metadata
     id="metadata3">
    <rdf:RDF>
      <cc:Work
         rdf:about="">
        <dc:title>White Logo</dc:title>
      </cc:Work>
    </rdf:RDF>
  </metadata>
</svg>
