<?xml version="1.0" encoding="UTF-8" standalone="no"?>
<!-- Created with Inkscape (http://www.inkscape.org/) -->

<svg
   width="177.59555mm"
   height="16.526958mm"
   viewBox="0 0 177.59555 16.526958"
   version="1.1"
   id="svg1"
   inkscape:version="1.4.3 (0d15f75, 2025-12-25)"
   sodipodi:docname="arum-logo-navy.svg"
   xmlns:inkscape="http://www.inkscape.org/namespaces/inkscape"
   xmlns:sodipodi="http://sodipodi.sourceforge.net/DTD/sodipodi-0.dtd"
   xmlns="http://www.w3.org/2000/svg"
   xmlns:svg="http://www.w3.org/2000/svg"
   xmlns:rdf="http://www.w3.org/1999/02/22-rdf-syntax-ns#"
   xmlns:cc="http://creativecommons.org/ns#"
   xmlns:dc="http://purl.org/dc/elements/1.1/">
  <title
     id="title1">Navy Logo</title>
  <sodipodi:namedview
     id="namedview1"
     pagecolor="#ffffff"
     bordercolor="#000000"
     borderopacity="0.25"
     inkscape:showpageshadow="2"
     inkscape:pageopacity="0.0"
     inkscape:pagecheckerboard="0"
     inkscape:deskcolor="#d1d1d1"
     inkscape:document-units="mm"
     inkscape:zoom="0.44097222"
     inkscape:cx="331.08661"
     inkscape:cy="216.56693"
     inkscape:window-width="1366"
     inkscape:window-height="697"
     inkscape:window-x="-8"
     inkscape:window-y="-8"
     inkscape:window-maximized="1"
     inkscape:current-layer="layer1" />
  <defs
     id="defs1" />
  <g
     inkscape:label="Layer 1"
     inkscape:groupmode="layer"
     id="layer1"
     transform="translate(-17.970834,-91.308333)">
    <path
       style="font-size:22.5778px;line-height:0;font-family:Cinzel;-inkscape-font-specification:Cinzel;letter-spacing:1.32292px;fill:#0f1a2b;stroke-width:0.264583;fill-opacity:1"
       d="m 26.302048,91.398653 6.683029,15.985087 H 31.065964 L 25.850492,93.543545 Z M 21.44782,105.87102 q -0.158044,0.45156 -0.04516,0.76765 0.112889,0.31609 0.361245,0.49671 0.270933,0.15805 0.541867,0.15805 h 0.2032 v 0.22577 h -4.538138 v -0.22577 q 0,0 0.112889,0 0.09031,0 0.09031,0 0.51929,0 1.061157,-0.31609 0.564445,-0.33867 0.92569,-1.10632 z m 4.854228,-14.472367 0.2032,1.580447 -5.667028,14.47237 h -1.354668 l 5.779917,-13.727303 q 0,0 0.112889,-0.270934 0.135467,-0.293511 0.293511,-0.699912 0.180623,-0.4064 0.293512,-0.790223 0.135466,-0.383822 0.135466,-0.564445 z m 3.18347,9.956807 v 0.67734 h -7.066852 v -0.67734 z m 1.016001,4.51556 h 1.851379 q 0.338667,0.76765 0.903112,1.10632 0.564445,0.31609 1.083735,0.31609 0,0 0.09031,0 0.09031,0 0.09031,0 v 0.22577 h -5.080005 v -0.22577 h 0.2032 q 0.428978,0 0.767645,-0.36125 0.338667,-0.38382 0.09031,-1.06116 z m 8.457503,-14.156277 v 9.934227 q 0,1.62561 0.587023,2.86739 0.6096,1.24177 1.693335,1.94169 1.083734,0.67733 2.506136,0.67733 1.512712,0 2.641602,-0.65476 1.12889,-0.65475 1.761069,-1.80622 0.632178,-1.17405 0.632178,-2.73191 V 91.714743 h 1.061157 v 10.227747 q 0,1.76106 -0.767645,3.09316 -0.745068,1.30951 -2.122314,2.05457 -1.377245,0.74507 -3.206047,0.74507 -1.873958,0 -3.296359,-0.72249 -1.399824,-0.74506 -2.190047,-2.05458 -0.767645,-1.33209 -0.767645,-3.09316 V 91.714743 Z m -1.399824,0 v 1.354668 h -0.06773 q 0,-0.496712 -0.361245,-0.812801 -0.338667,-0.316089 -0.835379,-0.316089 0,0 -0.180622,0 -0.180622,0 -0.180622,0 v -0.225778 z m 2.957692,0 v 0.225778 q 0,0 -0.180622,0 -0.180623,0 -0.180623,0 -0.496711,0 -0.857956,0.316089 -0.338667,0.316089 -0.338667,0.812801 h -0.04516 v -1.354668 z m 8.331209,0 v 1.354668 h -0.06773 q 0,-0.496712 -0.361245,-0.812801 -0.338667,-0.316089 -0.835378,-0.316089 0,0 -0.180623,0 -0.180622,0 -0.180622,0 v -0.225778 z m 2.551291,0 v 0.225778 q 0,0 -0.180622,0 -0.180623,0 -0.180623,0 -0.496711,0 -0.857956,0.316089 -0.338667,0.316089 -0.338667,0.812801 h -0.04516 v -1.354668 z m 6.425485,0 h 3.18347 q 1.016001,0 1.828802,0.293511 0.835378,0.293511 1.399823,0.857956 0.564445,0.541868 0.857957,1.332091 0.316089,0.767645 0.316089,1.761068 0,1.083735 -0.519289,2.077158 -0.496712,0.993423 -1.377246,1.625602 -0.857957,0.609601 -1.941691,0.609601 0.383822,0.15804 0.835378,0.65476 0.451557,0.47413 0.790224,0.92569 0,0 0.293511,0.45155 0.316089,0.42898 0.767645,1.06116 0.474134,0.63218 0.948268,1.24178 0.474134,0.6096 0.812801,0.97084 0.451556,0.49671 0.903112,0.88054 0.451556,0.38382 0.970845,0.6096 0.541867,0.22578 1.196624,0.22578 v 0.22577 h -1.24178 q -1.038578,0 -1.806224,-0.31609 -0.745067,-0.31609 -1.264356,-0.76764 -0.51929,-0.47414 -0.880535,-0.90311 -0.06773,-0.0903 -0.383822,-0.51929 -0.293512,-0.42898 -0.72249,-1.016 -0.4064,-0.6096 -0.812801,-1.19663 -0.4064,-0.58702 -0.699912,-0.99342 -0.293511,-0.42898 -0.338667,-0.49671 -0.428978,-0.56445 -0.948267,-1.03858 -0.51929,-0.474135 -1.12889,-0.474135 v -0.225778 q 0,0 0.338667,0.02258 0.361245,0 0.857956,-0.02258 0.587023,-0.02258 1.286935,-0.180622 0.699912,-0.158045 1.309512,-0.654756 0.609601,-0.496712 0.92569,-1.512713 0.06773,-0.248356 0.112889,-0.609601 0.04516,-0.383822 0.02258,-0.745067 -0.02258,-1.53529 -0.790223,-2.438402 -0.745068,-0.92569 -2.009424,-0.993424 -0.632179,-0.04515 -1.309513,-0.02258 -0.654756,0 -1.106312,0 -0.451556,0 -0.451556,0 0,-0.02258 -0.06773,-0.180622 -0.04516,-0.180622 -0.112889,-0.338667 z m 0.293511,0 V 107.5192 H 56.650829 V 91.714743 Z m -1.399823,14.156277 v 1.64818 h -1.806224 v -0.22577 q 0,0 0.135466,0 0.158045,0 0.158045,0 0.587023,0 0.993423,-0.40641 0.428978,-0.42897 0.451556,-1.016 z m 0,-12.508098 h -0.06773 q -0.02258,-0.587023 -0.451556,-0.993423 -0.4064,-0.428978 -0.993423,-0.428978 0,0 -0.158045,0 -0.135466,0 -0.135466,0 v -0.225778 h 1.806224 z m 1.33209,12.508098 h 0.06773 q 0,0.58703 0.428979,1.016 0.428978,0.40641 1.016001,0.40641 0,0 0.135466,0 0.135467,0 0.135467,0 v 0.22577 h -1.783646 z m 15.14055,-14.156277 v 9.934227 q 0,1.62561 0.587023,2.86739 0.609601,1.24177 1.693335,1.94169 1.083735,0.67733 2.506136,0.67733 1.512713,0 2.641603,-0.65476 1.12889,-0.65475 1.761068,-1.80622 0.632179,-1.17405 0.632179,-2.73191 V 91.714743 h 1.061156 v 10.227747 q 0,1.76106 -0.767645,3.09316 -0.745067,1.30951 -2.122313,2.05457 -1.377246,0.74507 -3.206048,0.74507 -1.873957,0 -3.296359,-0.72249 -1.399823,-0.74506 -2.190046,-2.05458 -0.767646,-1.33209 -0.767646,-3.09316 V 91.714743 Z m -1.399823,0 v 1.354668 h -0.06773 q 0,-0.496712 -0.361244,-0.812801 -0.338667,-0.316089 -0.835379,-0.316089 0,0 -0.180622,0 -0.180623,0 -0.180623,0 v -0.225778 z m 2.957692,0 v 0.225778 q 0,0 -0.180623,0 -0.180622,0 -0.180622,0 -0.496712,0 -0.857957,0.316089 -0.338667,0.316089 -0.338667,0.812801 h -0.04516 v -1.354668 z m 8.331208,0 v 1.354668 h -0.06773 q 0,-0.496712 -0.361245,-0.812801 -0.338667,-0.316089 -0.835379,-0.316089 0,0 -0.180622,0 -0.180622,0 -0.180622,0 v -0.225778 z m 2.551292,0 v 0.225778 q 0,0 -0.180623,0 -0.180622,0 -0.180622,0 -0.496712,0 -0.857957,0.316089 -0.338667,0.316089 -0.338667,0.812801 h -0.04515 v -1.354668 z m 18.730388,-0.31609 0.18062,1.512713 -5.66703,12.620994 q 0,0 -0.180622,0.38382 -0.158045,0.38382 -0.338667,0.92569 -0.180623,0.51929 -0.248356,0.99342 h -0.225778 l -0.316089,-1.4224 z M 90.476608,105.87102 v 1.64818 h -2.506136 v -0.22577 q 0.02258,0 0.180623,0 0.180622,0 0.180622,0 0.609601,0 1.083735,-0.36125 0.474133,-0.38382 0.564445,-1.06116 z m 0.654757,0.36125 q 0,0.0226 0,0.0452 0,0.0226 0,0.0677 0,0.36124 0.248355,0.67733 0.270934,0.29351 0.632179,0.29351 h 0.338667 v 0.2032 H 90.97332 v -1.28693 z m 0.541867,-14.833617 h 0.225778 l 0.451556,1.332091 -1.33209,14.788456 h -1.219202 z m 0.225778,0 6.502406,14.065967 -0.519289,2.37067 -6.412095,-13.907923 z m 12.66615,0 1.94169,16.120547 h -1.76107 l -1.24178,-13.682144 0.85796,-2.438403 z m 1.26435,14.472367 h 0.47414 q 0.11289,0.67734 0.58702,1.06116 0.47413,0.36125 1.06116,0.36125 0,0 0.18062,0 0.18062,0 0.18062,0 v 0.22577 h -2.48356 z m -1.19662,0.36125 h 0.15804 v 1.28693 h -1.37724 v -0.2032 h 0.33867 q 0.38382,0 0.63217,-0.29351 0.24836,-0.31609 0.24836,-0.67733 0,-0.0452 0,-0.0677 0,-0.0226 0,-0.0452 z m 11.00879,-14.833617 q 0.36124,0 0.76764,0.04516 0.42898,0.04516 0.8128,0.135467 0.4064,0.06773 0.72249,0.158044 0.33867,0.06773 0.51929,0.158045 v 2.506136 h -0.2032 q 0,-1.083734 -0.74507,-1.693335 -0.74506,-0.632179 -1.80622,-0.632179 -1.24178,0 -2.00943,0.790223 -0.76764,0.767646 -0.76764,1.806225 0,0.428978 0.18062,1.016001 0.2032,0.564445 0.72249,1.061156 l 4.44783,4.109158 q 0.67733,0.63218 0.90311,1.35467 0.22578,0.72249 0.22578,1.39982 0,1.87396 -1.15147,3.04801 -1.12889,1.17404 -3.07058,1.17404 -0.54187,0 -1.28694,-0.11289 -0.72248,-0.11289 -1.4224,-0.38382 -0.67733,-0.29351 -1.12889,-0.74507 -0.0677,-0.36124 -0.0677,-0.90311 0,-0.54187 0.0903,-1.12889 0.0903,-0.6096 0.24836,-1.10631 h 0.2032 q -0.11289,1.15147 0.29351,2.00942 0.4064,0.85796 1.17404,1.30952 0.79023,0.42897 1.78365,0.38382 1.24178,-0.0677 2.12231,-0.85796 0.90312,-0.8128 0.90312,-2.16747 0,-0.65475 -0.22578,-1.17404 -0.22578,-0.54187 -0.65476,-0.92569 l -4.33494,-4.018851 q -0.67733,-0.632178 -0.94826,-1.377246 -0.27094,-0.767645 -0.27094,-1.422401 0,-0.948268 0.45156,-1.828802 0.45155,-0.880534 1.33209,-1.422402 0.90311,-0.564445 2.19005,-0.564445 z m 2.82222,0.225778 v 0.474134 h -1.71591 v -0.474134 z m 18.82073,0.09031 V 107.5192 h -1.46756 V 91.714743 Z m -10.70188,0 V 107.5192 h -1.46756 V 91.714743 Z m 9.43752,7.653874 v 0.677333 h -9.6633 v -0.677333 z m -10.83734,6.502403 v 1.64818 h -1.80623 v -0.22577 q 0,0 0.13547,0 0.15804,0 0.15804,0 0.58703,0 0.99343,-0.40641 0.42897,-0.42897 0.45155,-1.016 z m 0,-12.508098 h -0.0677 q -0.0226,-0.587023 -0.45155,-0.993423 -0.4064,-0.428978 -0.99343,-0.428978 0,0 -0.15804,0 -0.13547,0 -0.13547,0 v -0.225778 h 1.80623 z m 1.33209,12.508098 h 0.0677 q 0.0226,0.58703 0.42898,1.016 0.42898,0.40641 1.016,0.40641 0,0 0.13547,0 0.13546,0 0.15804,0 v 0.22577 h -1.80622 z m 0,-12.508098 v -1.648179 h 1.80622 v 0.225778 q -0.0226,0 -0.15804,0 -0.13547,0 -0.13547,0 -0.58702,0 -1.016,0.428978 -0.4064,0.4064 -0.42898,0.993423 z m 9.36978,12.508098 v 1.64818 h -1.80622 v -0.22577 q 0.0226,0 0.15804,0 0.13547,0 0.13547,0 0.58702,0 1.016,-0.40641 0.42898,-0.42897 0.42898,-1.016 z m 0,-12.508098 h -0.0677 q 0,-0.587023 -0.42898,-0.993423 -0.42898,-0.428978 -1.016,-0.428978 0,0 -0.13547,0 -0.13546,0 -0.15804,0 v -0.225778 h 1.80622 z m 1.33209,12.508098 h 0.0677 q 0.0226,0.58703 0.42898,1.016 0.42897,0.40641 1.016,0.40641 0,0 0.13546,0 0.15805,0 0.15805,0 v 0.22577 h -1.80623 z m 0,-12.508098 v -1.648179 h 1.80623 v 0.225778 q 0,0 -0.15805,0 -0.13546,0 -0.13546,0 -0.58703,0 -1.016,0.428978 -0.40641,0.4064 -0.42898,0.993423 z m 9.04452,-1.648179 V 107.5192 h -1.46756 V 91.714743 Z m -1.39983,14.156277 v 1.64818 h -1.80622 v -0.22577 q 0,0 0.13547,0 0.15804,0 0.15804,0 0.58702,0 0.99342,-0.40641 0.42898,-0.42897 0.45156,-1.016 z m 0,-12.508098 h -0.0677 q -0.0226,-0.587023 -0.45156,-0.993423 -0.4064,-0.428978 -0.99342,-0.428978 0,0 -0.15804,0 -0.13547,0 -0.13547,0 v -0.225778 h 1.80622 z m 1.33209,12.508098 h 0.0677 q 0.0226,0.58703 0.42898,1.016 0.42897,0.40641 1.016,0.40641 0,0 0.13546,0 0.13547,0 0.15805,0 v 0.22577 h -1.80623 z m 0,-12.508098 v -1.648179 h 1.80623 v 0.225778 q -0.0226,0 -0.15805,0 -0.13546,0 -0.13546,0 -0.58703,0 -1.016,0.428978 -0.40641,0.4064 -0.42898,0.993423 z m 9.02193,-1.648179 V 107.5192 h -1.46756 V 91.714743 Z m 6.09601,15.104547 v 0.69991 h -6.16374 v -0.69991 z m -0.97085,-7.428095 v 0.677335 h -5.19289 v -0.677335 z m 0.97085,-7.676452 v 0.699911 h -6.16374 v -0.699911 z m 1.37724,12.146857 -1.30951,3.6576 h -3.74792 l 0.81281,-0.69991 q 1.19662,0 1.94169,-0.36124 0.76764,-0.38383 1.24178,-1.06116 0.47413,-0.67733 0.83537,-1.53529 z m -2.34809,-3.83823 v 1.49014 h -0.22578 v -0.33867 q 0,-0.45155 -0.31609,-0.76764 -0.31609,-0.33867 -0.76764,-0.33867 v -0.0452 z m 0,-2.077154 v 1.490135 h -1.30951 v -0.04516 q 0.45155,-0.02258 0.76764,-0.338667 0.31609,-0.338667 0.31609,-0.790223 v -0.316089 z m 0.97085,-5.599295 v 1.806224 h -0.22578 v -0.4064 q 0,-0.541867 -0.38382,-0.92569 -0.38383,-0.406401 -0.94827,-0.428978 v -0.04516 z m 0,-1.038579 v 0.654756 l -2.7545,-0.248355 q 0.49672,0 1.03858,-0.06773 0.56445,-0.06773 1.03858,-0.158044 0.47414,-0.09031 0.67734,-0.180623 z m -7.49583,14.562678 v 1.64818 h -1.80623 v -0.22577 q 0,0 0.13547,0 0.15804,0 0.15804,0 0.58703,0 0.99343,-0.40641 0.42898,-0.42897 0.45155,-1.016 z m 0,-12.508098 h -0.0677 q 0,-0.587023 -0.42898,-0.993423 -0.42897,-0.428978 -1.016,-0.428978 0,0 -0.13546,0 -0.13547,0 -0.13547,0 l -0.0226,-0.225778 h 1.80623 z m 15.52435,-1.648179 V 107.5192 h -1.46756 V 91.714743 Z m 6.096,15.104547 v 0.69991 h -6.16374 v -0.69991 z m 1.37725,-2.95769 -1.30951,3.6576 h -3.74792 l 0.8128,-0.69991 q 1.19663,0 1.94169,-0.36124 0.76765,-0.38383 1.24178,-1.06116 0.47414,-0.67733 0.83538,-1.53529 z m -8.87308,2.00942 v 1.64818 h -1.80622 v -0.22577 q 0,0 0.13547,0 0.15804,0 0.15804,0 0.58702,0 0.99342,-0.40641 0.42898,-0.42897 0.45156,-1.016 z m 0,-12.508098 h -0.0677 q -0.0226,-0.587023 -0.45156,-0.993423 -0.4064,-0.428978 -0.99342,-0.428978 0,0 -0.15804,0 -0.13547,0 -0.13547,0 v -0.225778 h 1.80622 z m 1.33209,0 v -1.648179 h 1.80623 v 0.225778 q -0.0226,0 -0.15805,0 -0.13546,0 -0.13546,0 -0.58703,0 -1.016,0.428978 -0.40641,0.4064 -0.42898,0.993423 z m 18.18855,-1.648179 q 2.41583,0 4.22205,0.993423 1.8288,0.970845 2.8448,2.754492 1.03858,1.783646 1.03858,4.154315 0,2.370667 -1.03858,4.154317 -1.016,1.76107 -2.8448,2.75449 -1.80622,0.99342 -4.22205,0.99342 h -4.83165 l -0.0226,-0.67733 q 0,0 0.47413,0 0.49671,0 1.2192,0 0.74507,0 1.46756,0 0.72249,0 1.19662,0 0.49671,0 0.49671,0 1.94169,0 3.3641,-0.90311 1.44497,-0.90311 2.2352,-2.52872 0.8128,-1.6256 0.8128,-3.793067 0,-2.167469 -0.8128,-3.793071 -0.79023,-1.625601 -2.2352,-2.528713 -1.44498,-0.903112 -3.3641,-0.903112 0,0 -0.51929,0 -0.49671,0 -1.26435,0 -0.74507,0 -1.51272,0 -0.74506,0 -1.26435,0 -0.51929,0 -0.51929,0 v -0.677334 z m -4.44782,0 V 107.5192 h -1.46756 V 91.714743 Z m -1.39983,14.156277 v 1.64818 h -1.80622 v -0.22577 q 0,0 0.13547,0 0.15804,0 0.15804,0 0.58702,0 0.99342,-0.40641 0.42898,-0.42897 0.45156,-1.016 z m 0,-12.508098 h -0.0677 q 0,-0.587023 -0.42898,-0.993423 -0.42898,-0.428978 -1.016,-0.428978 0,0 -0.13547,0 -0.13546,0 -0.13546,0 l -0.0226,-0.225778 h 1.80622 z"
       id="text4"
       aria-label="AURUMSHIELD" />
  </g>
  <metadata
     id="metadata1">
    <rdf:RDF>
      <cc:Work
         rdf:about="">
        <dc:title>Navy Logo</dc:title>
      </cc:Work>
    </rdf:RDF>
  </metadata>
</svg>
