<svg xmlns="http://www.w3.org/2000/svg" xmlns:xlink="http://www.w3.org/1999/xlink" width="3000" zoomAndPan="magnify" viewBox="0 0 2250 449.999984" height="600" preserveAspectRatio="xMidYMid meet" version="1.0"><defs><g/><clipPath id="e55421e197"><path d="M 0.160156 60 L 197 60 L 197 259 L 0.160156 259 Z M 0.160156 60 " clip-rule="nonzero"/></clipPath><clipPath id="78c83fd65b"><rect x="0" width="2163" y="0" height="324"/></clipPath></defs><g transform="matrix(1, 0, 0, 1, 62, 63)"><g clip-path="url(#78c83fd65b)"><g clip-path="url(#e55421e197)"><g fill="#c6a85a" fill-opacity="1"><g transform="translate(0.625511, 258.07708)"><g><path d="M 56.078125 -66.234375 L 45.515625 -37.109375 C 44.703125 -34.941406 44.066406 -32.796875 43.609375 -30.671875 C 43.160156 -28.554688 42.9375 -26.726562 42.9375 -25.1875 C 42.9375 -20.5 44.445312 -17.066406 47.46875 -14.890625 C 50.5 -12.722656 55.128906 -11.640625 61.359375 -11.640625 L 67.71875 -11.640625 L 67.71875 0 L 0 0 L 0 -11.640625 L 5.28125 -11.640625 C 7.988281 -11.640625 10.289062 -11.929688 12.1875 -12.515625 C 14.082031 -13.109375 15.796875 -14.21875 17.328125 -15.84375 C 18.867188 -17.46875 20.335938 -19.679688 21.734375 -22.484375 C 23.140625 -25.285156 24.695312 -28.894531 26.40625 -33.3125 L 87.90625 -198.015625 L 109.578125 -198.015625 L 172.28125 -26.40625 C 173.363281 -23.519531 174.46875 -21.128906 175.59375 -19.234375 C 176.726562 -17.335938 178.0625 -15.820312 179.59375 -14.6875 C 181.132812 -13.5625 182.894531 -12.769531 184.875 -12.3125 C 186.863281 -11.863281 189.210938 -11.640625 191.921875 -11.640625 L 195.578125 -11.640625 L 195.578125 0 L 119.328125 0 L 119.328125 -11.640625 L 125.6875 -11.640625 C 136.800781 -11.640625 142.359375 -16.066406 142.359375 -24.921875 C 142.359375 -26.453125 142.15625 -28.03125 141.75 -29.65625 C 141.34375 -31.28125 140.773438 -33.132812 140.046875 -35.21875 L 128.9375 -66.234375 Z M 106.734375 -128.671875 C 103.835938 -136.890625 101.191406 -144.585938 98.796875 -151.765625 C 96.410156 -158.941406 94.453125 -165.875 92.921875 -172.5625 C 92.285156 -169.21875 91.535156 -165.988281 90.671875 -162.875 C 89.816406 -159.757812 88.890625 -156.578125 87.890625 -153.328125 C 86.898438 -150.078125 85.773438 -146.664062 84.515625 -143.09375 C 83.253906 -139.53125 81.8125 -135.582031 80.1875 -131.25 L 61.359375 -80.1875 L 123.9375 -80.1875 Z M 106.734375 -128.671875 "/></g></g></g></g><g fill="#c6a85a" fill-opacity="1"><g transform="translate(232.824201, 258.07708)"><g><path d="M 100.359375 2.703125 C 89.429688 2.703125 79.632812 1.550781 70.96875 -0.75 C 62.300781 -3.050781 54.960938 -6.707031 48.953125 -11.71875 C 42.953125 -16.726562 38.367188 -23.179688 35.203125 -31.078125 C 32.046875 -38.984375 30.46875 -48.578125 30.46875 -59.859375 L 30.46875 -167.546875 C 30.46875 -171.609375 29.859375 -174.878906 28.640625 -177.359375 C 27.421875 -179.847656 25.773438 -181.769531 23.703125 -183.125 C 21.628906 -184.476562 19.210938 -185.359375 16.453125 -185.765625 C 13.703125 -186.171875 10.789062 -186.375 7.71875 -186.375 L 4.203125 -186.375 L 4.203125 -198.015625 L 84.921875 -198.015625 L 84.921875 -186.375 L 81.265625 -186.375 C 78.191406 -186.375 75.253906 -186.144531 72.453125 -185.6875 C 69.660156 -185.238281 67.25 -184.3125 65.21875 -182.90625 C 63.1875 -181.507812 61.5625 -179.503906 60.34375 -176.890625 C 59.125 -174.273438 58.515625 -170.800781 58.515625 -166.46875 L 58.515625 -58.234375 C 58.515625 -50.203125 59.664062 -43.363281 61.96875 -37.71875 C 64.269531 -32.070312 67.472656 -27.488281 71.578125 -23.96875 C 75.691406 -20.445312 80.566406 -17.875 86.203125 -16.25 C 91.847656 -14.625 98.054688 -13.8125 104.828125 -13.8125 C 112.867188 -13.8125 119.800781 -14.894531 125.625 -17.0625 C 131.445312 -19.226562 136.273438 -22.226562 140.109375 -26.0625 C 143.953125 -29.90625 146.796875 -34.46875 148.640625 -39.75 C 150.492188 -45.03125 151.421875 -50.832031 151.421875 -57.15625 L 151.421875 -167.546875 C 151.421875 -171.609375 150.8125 -174.878906 149.59375 -177.359375 C 148.375 -179.847656 146.726562 -181.769531 144.65625 -183.125 C 142.582031 -184.476562 140.164062 -185.359375 137.40625 -185.765625 C 134.65625 -186.171875 131.742188 -186.375 128.671875 -186.375 L 125.15625 -186.375 L 125.15625 -198.015625 L 194.765625 -198.015625 L 194.765625 -186.375 L 191.109375 -186.375 C 188.035156 -186.375 185.097656 -186.144531 182.296875 -185.6875 C 179.503906 -185.238281 177.09375 -184.3125 175.0625 -182.90625 C 173.03125 -181.507812 171.40625 -179.503906 170.1875 -176.890625 C 168.96875 -174.273438 168.359375 -170.800781 168.359375 -166.46875 L 168.359375 -56.609375 C 168.359375 -47.398438 166.890625 -39.113281 163.953125 -31.75 C 161.015625 -24.394531 156.679688 -18.164062 150.953125 -13.0625 C 145.222656 -7.96875 138.113281 -4.066406 129.625 -1.359375 C 121.132812 1.347656 111.378906 2.703125 100.359375 2.703125 Z M 100.359375 2.703125 "/></g></g></g><g fill="#c6a85a" fill-opacity="1"><g transform="translate(468.273588, 258.07708)"><g><path d="M 153.734375 -33.859375 C 158.421875 -26.453125 162.976562 -20.894531 167.40625 -17.1875 C 171.832031 -13.488281 176.976562 -11.640625 182.84375 -11.640625 L 183.65625 -11.640625 L 183.65625 0 L 179.734375 0 C 171.066406 0 163.957031 -0.3125 158.40625 -0.9375 C 152.851562 -1.570312 148.132812 -2.789062 144.25 -4.59375 C 140.363281 -6.40625 137.039062 -8.9375 134.28125 -12.1875 C 131.53125 -15.4375 128.578125 -19.679688 125.421875 -24.921875 L 87.90625 -87.359375 L 64.875 -87.359375 L 64.875 -30.203125 C 64.875 -26.140625 65.484375 -22.863281 66.703125 -20.375 C 67.921875 -17.894531 69.566406 -16.023438 71.640625 -14.765625 C 73.722656 -13.503906 76.140625 -12.664062 78.890625 -12.25 C 81.648438 -11.84375 84.5625 -11.640625 87.625 -11.640625 L 91.296875 -11.640625 L 91.296875 0 L 10.5625 0 L 10.5625 -11.640625 L 14.09375 -11.640625 C 17.15625 -11.640625 20.0625 -11.84375 22.8125 -12.25 C 25.570312 -12.664062 27.988281 -13.503906 30.0625 -14.765625 C 32.144531 -16.023438 33.796875 -17.894531 35.015625 -20.375 C 36.234375 -22.863281 36.84375 -26.140625 36.84375 -30.203125 L 36.84375 -167.546875 C 36.84375 -171.609375 36.234375 -174.878906 35.015625 -177.359375 C 33.796875 -179.847656 32.144531 -181.769531 30.0625 -183.125 C 27.988281 -184.476562 25.570312 -185.359375 22.8125 -185.765625 C 20.0625 -186.171875 17.15625 -186.375 14.09375 -186.375 L 10.5625 -186.375 L 10.5625 -198.015625 L 85.1875 -198.015625 C 109.207031 -198.015625 127.085938 -193.566406 138.828125 -184.671875 C 150.566406 -175.785156 156.4375 -162.398438 156.4375 -144.515625 C 156.4375 -137.109375 155.238281 -130.628906 152.84375 -125.078125 C 150.457031 -119.523438 147.320312 -114.71875 143.4375 -110.65625 C 139.550781 -106.59375 135.171875 -103.207031 130.296875 -100.5 C 125.421875 -97.789062 120.546875 -95.625 115.671875 -94 Z M 64.875 -100.359375 L 84.375 -100.359375 C 92.507812 -100.359375 99.285156 -101.257812 104.703125 -103.0625 C 110.117188 -104.875 114.453125 -107.585938 117.703125 -111.203125 C 120.953125 -114.816406 123.273438 -119.332031 124.671875 -124.75 C 126.078125 -130.164062 126.78125 -136.484375 126.78125 -143.703125 C 126.78125 -151.109375 126.007812 -157.40625 124.46875 -162.59375 C 122.9375 -167.789062 120.453125 -172.035156 117.015625 -175.328125 C 113.585938 -178.628906 109.140625 -181.023438 103.671875 -182.515625 C 98.210938 -184.003906 91.554688 -184.75 83.703125 -184.75 L 64.875 -184.75 Z M 64.875 -100.359375 "/></g></g></g><g fill="#c6a85a" fill-opacity="1"><g transform="translate(686.792297, 258.07708)"><g><path d="M 100.359375 2.703125 C 89.429688 2.703125 79.632812 1.550781 70.96875 -0.75 C 62.300781 -3.050781 54.960938 -6.707031 48.953125 -11.71875 C 42.953125 -16.726562 38.367188 -23.179688 35.203125 -31.078125 C 32.046875 -38.984375 30.46875 -48.578125 30.46875 -59.859375 L 30.46875 -167.546875 C 30.46875 -171.609375 29.859375 -174.878906 28.640625 -177.359375 C 27.421875 -179.847656 25.773438 -181.769531 23.703125 -183.125 C 21.628906 -184.476562 19.210938 -185.359375 16.453125 -185.765625 C 13.703125 -186.171875 10.789062 -186.375 7.71875 -186.375 L 4.203125 -186.375 L 4.203125 -198.015625 L 84.921875 -198.015625 L 84.921875 -186.375 L 81.265625 -186.375 C 78.191406 -186.375 75.253906 -186.144531 72.453125 -185.6875 C 69.660156 -185.238281 67.25 -184.3125 65.21875 -182.90625 C 63.1875 -181.507812 61.5625 -179.503906 60.34375 -176.890625 C 59.125 -174.273438 58.515625 -170.800781 58.515625 -166.46875 L 58.515625 -58.234375 C 58.515625 -50.203125 59.664062 -43.363281 61.96875 -37.71875 C 64.269531 -32.070312 67.472656 -27.488281 71.578125 -23.96875 C 75.691406 -20.445312 80.566406 -17.875 86.203125 -16.25 C 91.847656 -14.625 98.054688 -13.8125 104.828125 -13.8125 C 112.867188 -13.8125 119.800781 -14.894531 125.625 -17.0625 C 131.445312 -19.226562 136.273438 -22.226562 140.109375 -26.0625 C 143.953125 -29.90625 146.796875 -34.46875 148.640625 -39.75 C 150.492188 -45.03125 151.421875 -50.832031 151.421875 -57.15625 L 151.421875 -167.546875 C 151.421875 -171.609375 150.8125 -174.878906 149.59375 -177.359375 C 148.375 -179.847656 146.726562 -181.769531 144.65625 -183.125 C 142.582031 -184.476562 140.164062 -185.359375 137.40625 -185.765625 C 134.65625 -186.171875 131.742188 -186.375 128.671875 -186.375 L 125.15625 -186.375 L 125.15625 -198.015625 L 194.765625 -198.015625 L 194.765625 -186.375 L 191.109375 -186.375 C 188.035156 -186.375 185.097656 -186.144531 182.296875 -185.6875 C 179.503906 -185.238281 177.09375 -184.3125 175.0625 -182.90625 C 173.03125 -181.507812 171.40625 -179.503906 170.1875 -176.890625 C 168.96875 -174.273438 168.359375 -170.800781 168.359375 -166.46875 L 168.359375 -56.609375 C 168.359375 -47.398438 166.890625 -39.113281 163.953125 -31.75 C 161.015625 -24.394531 156.679688 -18.164062 150.953125 -13.0625 C 145.222656 -7.96875 138.113281 -4.066406 129.625 -1.359375 C 121.132812 1.347656 111.378906 2.703125 100.359375 2.703125 Z M 100.359375 2.703125 "/></g></g></g><g fill="#c6a85a" fill-opacity="1"><g transform="translate(922.241684, 258.07708)"><g><path d="M 68.53125 2.703125 C 59.5 2.703125 51.53125 1.753906 44.625 -0.140625 C 37.71875 -2.035156 31.9375 -4.675781 27.28125 -8.0625 C 22.632812 -11.445312 19.140625 -15.550781 16.796875 -20.375 C 14.453125 -25.207031 13.28125 -30.515625 13.28125 -36.296875 C 13.28125 -41.898438 15.015625 -46.414062 18.484375 -49.84375 C 21.960938 -53.269531 26.90625 -54.984375 33.3125 -54.984375 C 33.582031 -49.210938 34.460938 -43.660156 35.953125 -38.328125 C 37.453125 -33.003906 39.691406 -28.3125 42.671875 -24.25 C 45.648438 -20.1875 49.441406 -16.929688 54.046875 -14.484375 C 58.648438 -12.046875 64.203125 -10.828125 70.703125 -10.828125 C 83.160156 -10.828125 92.890625 -13.828125 99.890625 -19.828125 C 106.890625 -25.835938 110.390625 -34.488281 110.390625 -45.78125 C 110.390625 -50.832031 109.664062 -55.300781 108.21875 -59.1875 C 106.769531 -63.070312 104.375 -66.660156 101.03125 -69.953125 C 97.695312 -73.253906 93.296875 -76.414062 87.828125 -79.4375 C 82.367188 -82.457031 75.578125 -85.640625 67.453125 -88.984375 C 58.867188 -92.503906 51.367188 -96.273438 44.953125 -100.296875 C 38.546875 -104.316406 33.222656 -108.785156 28.984375 -113.703125 C 24.742188 -118.628906 21.582031 -124.113281 19.5 -130.15625 C 17.425781 -136.207031 16.390625 -143.023438 16.390625 -150.609375 C 16.390625 -158.554688 17.898438 -165.644531 20.921875 -171.875 C 23.953125 -178.101562 28.175781 -183.363281 33.59375 -187.65625 C 39.007812 -191.945312 45.421875 -195.21875 52.828125 -197.46875 C 60.234375 -199.726562 68.3125 -200.859375 77.0625 -200.859375 C 85.375 -200.859375 92.734375 -200 99.140625 -198.28125 C 105.554688 -196.570312 110.972656 -194.269531 115.390625 -191.375 C 119.816406 -188.488281 123.179688 -185.171875 125.484375 -181.421875 C 127.785156 -177.679688 128.9375 -173.78125 128.9375 -169.71875 C 128.9375 -163.75 126.972656 -159.253906 123.046875 -156.234375 C 119.117188 -153.210938 113.816406 -151.703125 107.140625 -151.703125 C 107.140625 -156.035156 106.617188 -160.300781 105.578125 -164.5 C 104.535156 -168.695312 102.796875 -172.441406 100.359375 -175.734375 C 97.921875 -179.035156 94.710938 -181.722656 90.734375 -183.796875 C 86.765625 -185.867188 81.847656 -186.90625 75.984375 -186.90625 C 70.660156 -186.90625 65.894531 -186.160156 61.6875 -184.671875 C 57.488281 -183.179688 53.945312 -181.0625 51.0625 -178.3125 C 48.175781 -175.5625 45.960938 -172.242188 44.421875 -168.359375 C 42.890625 -164.472656 42.125 -160.140625 42.125 -155.359375 C 42.125 -149.847656 42.84375 -144.992188 44.28125 -140.796875 C 45.726562 -136.597656 48.144531 -132.804688 51.53125 -129.421875 C 54.914062 -126.035156 59.363281 -122.828125 64.875 -119.796875 C 70.382812 -116.773438 77.15625 -113.640625 85.1875 -110.390625 C 93.320312 -107.046875 100.570312 -103.519531 106.9375 -99.8125 C 113.300781 -96.113281 118.691406 -91.984375 123.109375 -87.421875 C 127.535156 -82.867188 130.921875 -77.769531 133.265625 -72.125 C 135.617188 -66.476562 136.796875 -60.085938 136.796875 -52.953125 C 136.796875 -44.203125 135.191406 -36.367188 131.984375 -29.453125 C 128.785156 -22.546875 124.203125 -16.695312 118.234375 -11.90625 C 112.273438 -7.125 105.097656 -3.492188 96.703125 -1.015625 C 88.304688 1.460938 78.914062 2.703125 68.53125 2.703125 Z M 68.53125 2.703125 "/></g></g></g><g fill="#c6a85a" fill-opacity="1"><g transform="translate(1109.743512, 258.07708)"><g><path d="M 128.671875 0 L 128.671875 -11.640625 L 132.328125 -11.640625 C 135.484375 -11.640625 138.4375 -11.863281 141.1875 -12.3125 C 143.945312 -12.769531 146.34375 -13.695312 148.375 -15.09375 C 150.40625 -16.5 152.03125 -18.507812 153.25 -21.125 C 154.46875 -23.75 155.078125 -27.226562 155.078125 -31.5625 L 155.078125 -96.578125 L 64.875 -96.578125 L 64.875 -31.5625 C 64.875 -27.226562 65.484375 -23.75 66.703125 -21.125 C 67.921875 -18.507812 69.546875 -16.5 71.578125 -15.09375 C 73.609375 -13.695312 76.023438 -12.769531 78.828125 -12.3125 C 81.628906 -11.863281 84.5625 -11.640625 87.625 -11.640625 L 91.296875 -11.640625 L 91.296875 0 L 10.5625 0 L 10.5625 -11.640625 L 14.09375 -11.640625 C 17.25 -11.640625 20.203125 -11.863281 22.953125 -12.3125 C 25.710938 -12.769531 28.128906 -13.695312 30.203125 -15.09375 C 32.273438 -16.5 33.898438 -18.507812 35.078125 -21.125 C 36.253906 -23.75 36.84375 -27.226562 36.84375 -31.5625 L 36.84375 -167.546875 C 36.84375 -171.609375 36.234375 -174.878906 35.015625 -177.359375 C 33.796875 -179.847656 32.144531 -181.769531 30.0625 -183.125 C 27.988281 -184.476562 25.570312 -185.359375 22.8125 -185.765625 C 20.0625 -186.171875 17.15625 -186.375 14.09375 -186.375 L 10.5625 -186.375 L 10.5625 -198.015625 L 91.296875 -198.015625 L 91.296875 -186.375 L 87.625 -186.375 C 84.5625 -186.375 81.628906 -186.144531 78.828125 -185.6875 C 76.023438 -185.238281 73.609375 -184.3125 71.578125 -182.90625 C 69.546875 -181.507812 67.921875 -179.503906 66.703125 -176.890625 C 65.484375 -174.273438 64.875 -170.800781 64.875 -166.46875 L 64.875 -110.390625 L 155.078125 -110.390625 L 155.078125 -166.46875 C 155.078125 -170.800781 154.46875 -174.273438 153.25 -176.890625 C 152.03125 -179.503906 150.40625 -181.507812 148.375 -182.90625 C 146.34375 -184.3125 143.945312 -185.238281 141.1875 -185.6875 C 138.4375 -186.144531 135.484375 -186.375 132.328125 -186.375 L 128.671875 -186.375 L 128.671875 -198.015625 L 209.390625 -198.015625 L 209.390625 -186.375 L 205.875 -186.375 C 202.71875 -186.375 199.757812 -186.144531 197 -185.6875 C 194.25 -185.238281 191.832031 -184.3125 189.75 -182.90625 C 187.675781 -181.507812 186.050781 -179.503906 184.875 -176.890625 C 183.707031 -174.273438 183.125 -170.800781 183.125 -166.46875 L 183.125 -30.203125 C 183.125 -26.140625 183.734375 -22.863281 184.953125 -20.375 C 186.171875 -17.894531 187.816406 -16.023438 189.890625 -14.765625 C 191.972656 -13.503906 194.390625 -12.664062 197.140625 -12.25 C 199.890625 -11.84375 202.800781 -11.640625 205.875 -11.640625 L 209.390625 -11.640625 L 209.390625 0 Z M 128.671875 0 "/></g></g></g><g fill="#c6a85a" fill-opacity="1"><g transform="translate(1366.32231, 258.07708)"><g><path d="M 10.5625 0 L 10.5625 -11.640625 L 14.09375 -11.640625 C 17.25 -11.640625 20.203125 -11.863281 22.953125 -12.3125 C 25.710938 -12.769531 28.128906 -13.695312 30.203125 -15.09375 C 32.273438 -16.5 33.898438 -18.507812 35.078125 -21.125 C 36.253906 -23.75 36.84375 -27.226562 36.84375 -31.5625 L 36.84375 -166.46875 C 36.84375 -170.800781 36.253906 -174.273438 35.078125 -176.890625 C 33.898438 -179.503906 32.273438 -181.507812 30.203125 -182.90625 C 28.128906 -184.3125 25.710938 -185.238281 22.953125 -185.6875 C 20.203125 -186.144531 17.25 -186.375 14.09375 -186.375 L 10.5625 -186.375 L 10.5625 -198.015625 L 91.296875 -198.015625 L 91.296875 -186.375 L 87.625 -186.375 C 84.5625 -186.375 81.628906 -186.144531 78.828125 -185.6875 C 76.023438 -185.238281 73.609375 -184.3125 71.578125 -182.90625 C 69.546875 -181.507812 67.921875 -179.503906 66.703125 -176.890625 C 65.484375 -174.273438 64.875 -170.800781 64.875 -166.46875 L 64.875 -31.5625 C 64.875 -27.226562 65.484375 -23.75 66.703125 -21.125 C 67.921875 -18.507812 69.546875 -16.5 71.578125 -15.09375 C 73.609375 -13.695312 76.023438 -12.769531 78.828125 -12.3125 C 81.628906 -11.863281 84.5625 -11.640625 87.625 -11.640625 L 91.296875 -11.640625 L 91.296875 0 Z M 10.5625 0 "/></g></g></g><g fill="#c6a85a" fill-opacity="1"><g transform="translate(1504.793067, 258.07708)"><g><path d="M 64.875 -13.8125 L 118.375 -13.8125 C 122.800781 -13.8125 126.570312 -14.421875 129.6875 -15.640625 C 132.800781 -16.859375 135.394531 -18.503906 137.46875 -20.578125 C 139.550781 -22.660156 141.175781 -25.078125 142.34375 -27.828125 C 143.519531 -30.585938 144.335938 -33.5 144.796875 -36.5625 L 146.6875 -48.484375 L 161.171875 -48.484375 L 159.28125 0 L 10.5625 0 L 10.5625 -11.640625 L 14.09375 -11.640625 C 17.15625 -11.640625 20.0625 -11.84375 22.8125 -12.25 C 25.570312 -12.664062 27.988281 -13.503906 30.0625 -14.765625 C 32.144531 -16.023438 33.796875 -17.894531 35.015625 -20.375 C 36.234375 -22.863281 36.84375 -26.140625 36.84375 -30.203125 L 36.84375 -166.46875 C 36.84375 -170.800781 36.253906 -174.273438 35.078125 -176.890625 C 33.898438 -179.503906 32.273438 -181.507812 30.203125 -182.90625 C 28.128906 -184.3125 25.710938 -185.238281 22.953125 -185.6875 C 20.203125 -186.144531 17.25 -186.375 14.09375 -186.375 L 10.5625 -186.375 L 10.5625 -198.015625 L 150.34375 -198.015625 L 151.703125 -149.53125 L 137.34375 -149.53125 L 135.984375 -161.453125 C 135.617188 -164.523438 134.914062 -167.4375 133.875 -170.1875 C 132.84375 -172.9375 131.351562 -175.347656 129.40625 -177.421875 C 127.46875 -179.503906 125.03125 -181.15625 122.09375 -182.375 C 119.164062 -183.59375 115.625 -184.203125 111.46875 -184.203125 L 64.875 -184.203125 L 64.875 -110.390625 L 131.78125 -110.390625 L 131.78125 -96.84375 L 64.875 -96.84375 Z M 64.875 -13.8125 "/></g></g></g><g fill="#c6a85a" fill-opacity="1"><g transform="translate(1714.236971, 258.07708)"><g><path d="M 10.5625 0 L 10.5625 -11.640625 L 14.09375 -11.640625 C 17.25 -11.640625 20.203125 -11.863281 22.953125 -12.3125 C 25.710938 -12.769531 28.128906 -13.695312 30.203125 -15.09375 C 32.273438 -16.5 33.898438 -18.507812 35.078125 -21.125 C 36.253906 -23.75 36.84375 -27.226562 36.84375 -31.5625 L 36.84375 -166.46875 C 36.84375 -170.800781 36.253906 -174.273438 35.078125 -176.890625 C 33.898438 -179.503906 32.273438 -181.507812 30.203125 -182.90625 C 28.128906 -184.3125 25.710938 -185.238281 22.953125 -185.6875 C 20.203125 -186.144531 17.25 -186.375 14.09375 -186.375 L 10.5625 -186.375 L 10.5625 -198.015625 L 91.296875 -198.015625 L 91.296875 -186.375 L 87.625 -186.375 C 84.5625 -186.375 81.648438 -186.171875 78.890625 -185.765625 C 76.140625 -185.359375 73.722656 -184.476562 71.640625 -183.125 C 69.566406 -181.769531 67.921875 -179.847656 66.703125 -177.359375 C 65.484375 -174.878906 64.875 -171.609375 64.875 -167.546875 L 64.875 -13.8125 L 119.59375 -13.8125 C 123.75 -13.8125 127.289062 -14.554688 130.21875 -16.046875 C 133.15625 -17.535156 135.570312 -19.476562 137.46875 -21.875 C 139.375 -24.269531 140.84375 -26.957031 141.875 -29.9375 C 142.914062 -32.914062 143.617188 -35.894531 143.984375 -38.875 L 146.6875 -59.59375 L 161.171875 -59.59375 L 159.28125 0 Z M 10.5625 0 "/></g></g></g><g fill="#c6a85a" fill-opacity="1"><g transform="translate(1923.680876, 258.07708)"><g><path d="M 185.828125 -99.28125 C 185.828125 -84.113281 183.929688 -70.410156 180.140625 -58.171875 C 176.347656 -45.941406 170.703125 -35.515625 163.203125 -26.890625 C 155.710938 -18.265625 146.320312 -11.625 135.03125 -6.96875 C 123.75 -2.320312 110.566406 0 95.484375 0 L 10.5625 0 L 10.5625 -11.640625 L 14.09375 -11.640625 C 17.25 -11.640625 20.203125 -11.863281 22.953125 -12.3125 C 25.710938 -12.769531 28.128906 -13.695312 30.203125 -15.09375 C 32.273438 -16.5 33.898438 -18.507812 35.078125 -21.125 C 36.253906 -23.75 36.84375 -27.226562 36.84375 -31.5625 L 36.84375 -167.546875 C 36.84375 -171.609375 36.234375 -174.878906 35.015625 -177.359375 C 33.796875 -179.847656 32.144531 -181.769531 30.0625 -183.125 C 27.988281 -184.476562 25.570312 -185.359375 22.8125 -185.765625 C 20.0625 -186.171875 17.15625 -186.375 14.09375 -186.375 L 10.5625 -186.375 L 10.5625 -198.015625 L 95.484375 -198.015625 C 109.753906 -198.015625 122.488281 -195.820312 133.6875 -191.4375 C 144.882812 -187.0625 154.34375 -180.675781 162.0625 -172.28125 C 169.78125 -163.882812 175.671875 -153.546875 179.734375 -141.265625 C 183.796875 -128.984375 185.828125 -114.988281 185.828125 -99.28125 Z M 88.984375 -14.09375 C 100.003906 -14.09375 109.644531 -15.960938 117.90625 -19.703125 C 126.164062 -23.453125 133.050781 -28.9375 138.5625 -36.15625 C 144.070312 -43.382812 148.203125 -52.28125 150.953125 -62.84375 C 153.703125 -73.40625 155.078125 -85.550781 155.078125 -99.28125 C 155.078125 -126.820312 149.59375 -147.859375 138.625 -162.390625 C 127.65625 -176.929688 111.203125 -184.203125 89.265625 -184.203125 L 64.875 -184.203125 L 64.875 -14.09375 Z M 88.984375 -14.09375 "/></g></g></g></g></g></svg>