<svg xmlns="http://www.w3.org/2000/svg" xmlns:xlink="http://www.w3.org/1999/xlink" width="3000" zoomAndPan="magnify" viewBox="0 0 2250 449.999984" height="600" preserveAspectRatio="xMidYMid meet" version="1.0"><defs><g/></defs><g fill="#0b1e36" fill-opacity="1"><g transform="translate(68.380498, 320.494886)"><g><path d="M 55.765625 -65.875 L 45.265625 -36.90625 C 44.453125 -34.75 43.820312 -32.613281 43.375 -30.5 C 42.925781 -28.394531 42.703125 -26.582031 42.703125 -25.0625 C 42.703125 -20.382812 44.207031 -16.96875 47.21875 -14.8125 C 50.226562 -12.65625 54.832031 -11.578125 61.03125 -11.578125 L 67.359375 -11.578125 L 67.359375 0 L 0 0 L 0 -11.578125 L 5.25 -11.578125 C 7.945312 -11.578125 10.238281 -11.867188 12.125 -12.453125 C 14.007812 -13.046875 15.710938 -14.148438 17.234375 -15.765625 C 18.765625 -17.378906 20.222656 -19.578125 21.609375 -22.359375 C 23.003906 -25.140625 24.554688 -28.734375 26.265625 -33.140625 L 87.421875 -196.953125 L 108.984375 -196.953125 L 171.359375 -26.265625 C 172.429688 -23.390625 173.53125 -21.007812 174.65625 -19.125 C 175.78125 -17.238281 177.101562 -15.734375 178.625 -14.609375 C 180.15625 -13.492188 181.90625 -12.707031 183.875 -12.25 C 185.851562 -11.800781 188.191406 -11.578125 190.890625 -11.578125 L 194.53125 -11.578125 L 194.53125 0 L 118.6875 0 L 118.6875 -11.578125 L 125.015625 -11.578125 C 136.054688 -11.578125 141.578125 -15.976562 141.578125 -24.78125 C 141.578125 -26.3125 141.375 -27.882812 140.96875 -29.5 C 140.570312 -31.113281 140.015625 -32.957031 139.296875 -35.03125 L 128.25 -65.875 Z M 106.15625 -127.984375 C 103.28125 -136.148438 100.648438 -143.800781 98.265625 -150.9375 C 95.890625 -158.082031 93.9375 -164.976562 92.40625 -171.625 C 91.78125 -168.300781 91.039062 -165.085938 90.1875 -161.984375 C 89.332031 -158.890625 88.410156 -155.722656 87.421875 -152.484375 C 86.441406 -149.253906 85.320312 -145.863281 84.0625 -142.3125 C 82.800781 -138.769531 81.363281 -134.84375 79.75 -130.53125 L 61.03125 -79.75 L 123.265625 -79.75 Z M 106.15625 -127.984375 "/></g></g></g><g fill="#0b1e36" fill-opacity="1"><g transform="translate(299.320195, 320.494886)"><g><path d="M 99.828125 2.6875 C 88.953125 2.6875 79.203125 1.546875 70.578125 -0.734375 C 61.960938 -3.023438 54.664062 -6.660156 48.6875 -11.640625 C 42.71875 -16.628906 38.160156 -23.050781 35.015625 -30.90625 C 31.878906 -38.769531 30.3125 -48.316406 30.3125 -59.546875 L 30.3125 -166.640625 C 30.3125 -170.679688 29.703125 -173.9375 28.484375 -176.40625 C 27.273438 -178.875 25.632812 -180.78125 23.5625 -182.125 C 21.5 -183.476562 19.097656 -184.351562 16.359375 -184.75 C 13.628906 -185.15625 10.734375 -185.359375 7.671875 -185.359375 L 4.171875 -185.359375 L 4.171875 -196.953125 L 84.46875 -196.953125 L 84.46875 -185.359375 L 80.828125 -185.359375 C 77.773438 -185.359375 74.851562 -185.132812 72.0625 -184.6875 C 69.28125 -184.238281 66.878906 -183.316406 64.859375 -181.921875 C 62.835938 -180.535156 61.222656 -178.539062 60.015625 -175.9375 C 58.804688 -173.332031 58.203125 -169.875 58.203125 -165.5625 L 58.203125 -57.921875 C 58.203125 -49.929688 59.34375 -43.128906 61.625 -37.515625 C 63.914062 -31.898438 67.101562 -27.34375 71.1875 -23.84375 C 75.28125 -20.34375 80.128906 -17.78125 85.734375 -16.15625 C 91.347656 -14.539062 97.523438 -13.734375 104.265625 -13.734375 C 112.253906 -13.734375 119.144531 -14.8125 124.9375 -16.96875 C 130.738281 -19.125 135.546875 -22.109375 139.359375 -25.921875 C 143.171875 -29.742188 146 -34.28125 147.84375 -39.53125 C 149.6875 -44.789062 150.609375 -50.5625 150.609375 -56.84375 L 150.609375 -166.640625 C 150.609375 -170.679688 150 -173.9375 148.78125 -176.40625 C 147.570312 -178.875 145.9375 -180.78125 143.875 -182.125 C 141.8125 -183.476562 139.410156 -184.351562 136.671875 -184.75 C 133.929688 -185.15625 131.035156 -185.359375 127.984375 -185.359375 L 124.46875 -185.359375 L 124.46875 -196.953125 L 193.71875 -196.953125 L 193.71875 -185.359375 L 190.078125 -185.359375 C 187.023438 -185.359375 184.101562 -185.132812 181.3125 -184.6875 C 178.53125 -184.238281 176.128906 -183.316406 174.109375 -181.921875 C 172.085938 -180.535156 170.472656 -178.539062 169.265625 -175.9375 C 168.054688 -173.332031 167.453125 -169.875 167.453125 -165.5625 L 167.453125 -56.3125 C 167.453125 -47.144531 165.988281 -38.898438 163.0625 -31.578125 C 160.144531 -24.265625 155.832031 -18.070312 150.125 -13 C 144.425781 -7.925781 137.351562 -4.039062 128.90625 -1.34375 C 120.46875 1.34375 110.773438 2.6875 99.828125 2.6875 Z M 99.828125 2.6875 "/></g></g></g><g fill="#0b1e36" fill-opacity="1"><g transform="translate(533.492894, 320.494886)"><g><path d="M 152.890625 -33.671875 C 157.566406 -26.304688 162.101562 -20.78125 166.5 -17.09375 C 170.90625 -13.414062 176.023438 -11.578125 181.859375 -11.578125 L 182.671875 -11.578125 L 182.671875 0 L 178.765625 0 C 170.140625 0 163.066406 -0.3125 157.546875 -0.9375 C 152.023438 -1.570312 147.332031 -2.785156 143.46875 -4.578125 C 139.601562 -6.378906 136.300781 -8.894531 133.5625 -12.125 C 130.820312 -15.351562 127.882812 -19.570312 124.75 -24.78125 L 87.421875 -86.890625 L 64.53125 -86.890625 L 64.53125 -30.046875 C 64.53125 -26.003906 65.132812 -22.742188 66.34375 -20.265625 C 67.5625 -17.796875 69.203125 -15.929688 71.265625 -14.671875 C 73.328125 -13.421875 75.726562 -12.59375 78.46875 -12.1875 C 81.207031 -11.78125 84.101562 -11.578125 87.15625 -11.578125 L 90.796875 -11.578125 L 90.796875 0 L 10.5 0 L 10.5 -11.578125 L 14.015625 -11.578125 C 17.066406 -11.578125 19.960938 -11.78125 22.703125 -12.1875 C 25.441406 -12.59375 27.84375 -13.421875 29.90625 -14.671875 C 31.96875 -15.929688 33.601562 -17.796875 34.8125 -20.265625 C 36.03125 -22.742188 36.640625 -26.003906 36.640625 -30.046875 L 36.640625 -166.640625 C 36.640625 -170.679688 36.03125 -173.9375 34.8125 -176.40625 C 33.601562 -178.875 31.96875 -180.78125 29.90625 -182.125 C 27.84375 -183.476562 25.441406 -184.351562 22.703125 -184.75 C 19.960938 -185.15625 17.066406 -185.359375 14.015625 -185.359375 L 10.5 -185.359375 L 10.5 -196.953125 L 84.734375 -196.953125 C 108.617188 -196.953125 126.398438 -192.523438 138.078125 -183.671875 C 149.753906 -174.828125 155.59375 -161.515625 155.59375 -143.734375 C 155.59375 -136.367188 154.398438 -129.925781 152.015625 -124.40625 C 149.640625 -118.882812 146.519531 -114.101562 142.65625 -110.0625 C 138.800781 -106.019531 134.445312 -102.648438 129.59375 -99.953125 C 124.738281 -97.265625 119.890625 -95.109375 115.046875 -93.484375 Z M 64.53125 -99.828125 L 83.921875 -99.828125 C 92.003906 -99.828125 98.738281 -100.722656 104.125 -102.515625 C 109.519531 -104.304688 113.832031 -107 117.0625 -110.59375 C 120.300781 -114.1875 122.613281 -118.675781 124 -124.0625 C 125.394531 -129.457031 126.09375 -135.742188 126.09375 -142.921875 C 126.09375 -150.285156 125.328125 -156.550781 123.796875 -161.71875 C 122.273438 -166.882812 119.804688 -171.101562 116.390625 -174.375 C 112.972656 -177.65625 108.546875 -180.035156 103.109375 -181.515625 C 97.679688 -183.003906 91.0625 -183.75 83.25 -183.75 L 64.53125 -183.75 Z M 64.53125 -99.828125 "/></g></g></g><g fill="#0b1e36" fill-opacity="1"><g transform="translate(750.826798, 320.494886)"><g><path d="M 99.828125 2.6875 C 88.953125 2.6875 79.203125 1.546875 70.578125 -0.734375 C 61.960938 -3.023438 54.664062 -6.660156 48.6875 -11.640625 C 42.71875 -16.628906 38.160156 -23.050781 35.015625 -30.90625 C 31.878906 -38.769531 30.3125 -48.316406 30.3125 -59.546875 L 30.3125 -166.640625 C 30.3125 -170.679688 29.703125 -173.9375 28.484375 -176.40625 C 27.273438 -178.875 25.632812 -180.78125 23.5625 -182.125 C 21.5 -183.476562 19.097656 -184.351562 16.359375 -184.75 C 13.628906 -185.15625 10.734375 -185.359375 7.671875 -185.359375 L 4.171875 -185.359375 L 4.171875 -196.953125 L 84.46875 -196.953125 L 84.46875 -185.359375 L 80.828125 -185.359375 C 77.773438 -185.359375 74.851562 -185.132812 72.0625 -184.6875 C 69.28125 -184.238281 66.878906 -183.316406 64.859375 -181.921875 C 62.835938 -180.535156 61.222656 -178.539062 60.015625 -175.9375 C 58.804688 -173.332031 58.203125 -169.875 58.203125 -165.5625 L 58.203125 -57.921875 C 58.203125 -49.929688 59.34375 -43.128906 61.625 -37.515625 C 63.914062 -31.898438 67.101562 -27.34375 71.1875 -23.84375 C 75.28125 -20.34375 80.128906 -17.78125 85.734375 -16.15625 C 91.347656 -14.539062 97.523438 -13.734375 104.265625 -13.734375 C 112.253906 -13.734375 119.144531 -14.8125 124.9375 -16.96875 C 130.738281 -19.125 135.546875 -22.109375 139.359375 -25.921875 C 143.171875 -29.742188 146 -34.28125 147.84375 -39.53125 C 149.6875 -44.789062 150.609375 -50.5625 150.609375 -56.84375 L 150.609375 -166.640625 C 150.609375 -170.679688 150 -173.9375 148.78125 -176.40625 C 147.570312 -178.875 145.9375 -180.78125 143.875 -182.125 C 141.8125 -183.476562 139.410156 -184.351562 136.671875 -184.75 C 133.929688 -185.15625 131.035156 -185.359375 127.984375 -185.359375 L 124.46875 -185.359375 L 124.46875 -196.953125 L 193.71875 -196.953125 L 193.71875 -185.359375 L 190.078125 -185.359375 C 187.023438 -185.359375 184.101562 -185.132812 181.3125 -184.6875 C 178.53125 -184.238281 176.128906 -183.316406 174.109375 -181.921875 C 172.085938 -180.535156 170.472656 -178.539062 169.265625 -175.9375 C 168.054688 -173.332031 167.453125 -169.875 167.453125 -165.5625 L 167.453125 -56.3125 C 167.453125 -47.144531 165.988281 -38.898438 163.0625 -31.578125 C 160.144531 -24.265625 155.832031 -18.070312 150.125 -13 C 144.425781 -7.925781 137.351562 -4.039062 128.90625 -1.34375 C 120.46875 1.34375 110.773438 2.6875 99.828125 2.6875 Z M 99.828125 2.6875 "/></g></g></g><g fill="#0b1e36" fill-opacity="1"><g transform="translate(984.999542, 320.494886)"><g><path d="M 68.171875 2.6875 C 59.179688 2.6875 51.25 1.742188 44.375 -0.140625 C 37.507812 -2.023438 31.765625 -4.648438 27.140625 -8.015625 C 22.515625 -11.378906 19.035156 -15.460938 16.703125 -20.265625 C 14.367188 -25.078125 13.203125 -30.359375 13.203125 -36.109375 C 13.203125 -41.671875 14.929688 -46.15625 18.390625 -49.5625 C 21.847656 -52.976562 26.765625 -54.6875 33.140625 -54.6875 C 33.410156 -48.945312 34.285156 -43.425781 35.765625 -38.125 C 37.242188 -32.820312 39.460938 -28.148438 42.421875 -24.109375 C 45.390625 -20.066406 49.164062 -16.832031 53.75 -14.40625 C 58.332031 -11.988281 63.851562 -10.78125 70.3125 -10.78125 C 82.707031 -10.78125 92.382812 -13.765625 99.34375 -19.734375 C 106.3125 -25.703125 109.796875 -34.300781 109.796875 -45.53125 C 109.796875 -50.5625 109.078125 -55.003906 107.640625 -58.859375 C 106.203125 -62.722656 103.820312 -66.296875 100.5 -69.578125 C 97.175781 -72.859375 92.796875 -76 87.359375 -79 C 81.921875 -82.007812 75.164062 -85.175781 67.09375 -88.5 C 58.550781 -92.007812 51.09375 -95.757812 44.71875 -99.75 C 38.34375 -103.75 33.046875 -108.195312 28.828125 -113.09375 C 24.609375 -117.988281 21.460938 -123.441406 19.390625 -129.453125 C 17.328125 -135.472656 16.296875 -142.253906 16.296875 -149.796875 C 16.296875 -157.703125 17.800781 -164.753906 20.8125 -170.953125 C 23.820312 -177.148438 28.019531 -182.378906 33.40625 -186.640625 C 38.789062 -190.910156 45.164062 -194.164062 52.53125 -196.40625 C 59.894531 -198.65625 67.9375 -199.78125 76.65625 -199.78125 C 84.914062 -199.78125 92.234375 -198.925781 98.609375 -197.21875 C 104.984375 -195.507812 110.367188 -193.21875 114.765625 -190.34375 C 119.171875 -187.46875 122.519531 -184.164062 124.8125 -180.4375 C 127.101562 -176.71875 128.25 -172.835938 128.25 -168.796875 C 128.25 -162.867188 126.296875 -158.398438 122.390625 -155.390625 C 118.484375 -152.378906 113.207031 -150.875 106.5625 -150.875 C 106.5625 -155.1875 106.039062 -159.429688 105 -163.609375 C 103.96875 -167.785156 102.238281 -171.507812 99.8125 -174.78125 C 97.394531 -178.0625 94.207031 -180.734375 90.25 -182.796875 C 86.300781 -184.867188 81.410156 -185.90625 75.578125 -185.90625 C 70.273438 -185.90625 65.535156 -185.160156 61.359375 -183.671875 C 57.179688 -182.191406 53.65625 -180.082031 50.78125 -177.34375 C 47.90625 -174.601562 45.703125 -171.300781 44.171875 -167.4375 C 42.648438 -163.582031 41.890625 -159.273438 41.890625 -154.515625 C 41.890625 -149.035156 42.609375 -144.207031 44.046875 -140.03125 C 45.484375 -135.851562 47.882812 -132.082031 51.25 -128.71875 C 54.625 -125.351562 59.050781 -122.164062 64.53125 -119.15625 C 70.007812 -116.144531 76.742188 -113.023438 84.734375 -109.796875 C 92.816406 -106.472656 100.023438 -102.96875 106.359375 -99.28125 C 112.691406 -95.601562 118.054688 -91.492188 122.453125 -86.953125 C 126.847656 -82.421875 130.210938 -77.347656 132.546875 -71.734375 C 134.890625 -66.117188 136.0625 -59.765625 136.0625 -52.671875 C 136.0625 -43.960938 134.46875 -36.171875 131.28125 -29.296875 C 128.09375 -22.429688 123.535156 -16.617188 117.609375 -11.859375 C 111.679688 -7.097656 104.539062 -3.484375 96.1875 -1.015625 C 87.832031 1.453125 78.492188 2.6875 68.171875 2.6875 Z M 68.171875 2.6875 "/></g></g></g><g fill="#0b1e36" fill-opacity="1"><g transform="translate(1171.484665, 320.494886)"><g><path d="M 127.984375 0 L 127.984375 -11.578125 L 131.609375 -11.578125 C 134.753906 -11.578125 137.695312 -11.800781 140.4375 -12.25 C 143.175781 -12.707031 145.554688 -13.628906 147.578125 -15.015625 C 149.597656 -16.410156 151.210938 -18.410156 152.421875 -21.015625 C 153.640625 -23.617188 154.25 -27.078125 154.25 -31.390625 L 154.25 -96.046875 L 64.53125 -96.046875 L 64.53125 -31.390625 C 64.53125 -27.078125 65.132812 -23.617188 66.34375 -21.015625 C 67.5625 -18.410156 69.175781 -16.410156 71.1875 -15.015625 C 73.207031 -13.628906 75.609375 -12.707031 78.390625 -12.25 C 81.179688 -11.800781 84.101562 -11.578125 87.15625 -11.578125 L 90.796875 -11.578125 L 90.796875 0 L 10.5 0 L 10.5 -11.578125 L 14.015625 -11.578125 C 17.148438 -11.578125 20.085938 -11.800781 22.828125 -12.25 C 25.566406 -12.707031 27.96875 -13.628906 30.03125 -15.015625 C 32.101562 -16.410156 33.722656 -18.410156 34.890625 -21.015625 C 36.054688 -23.617188 36.640625 -27.078125 36.640625 -31.390625 L 36.640625 -166.640625 C 36.640625 -170.679688 36.03125 -173.9375 34.8125 -176.40625 C 33.601562 -178.875 31.96875 -180.78125 29.90625 -182.125 C 27.84375 -183.476562 25.441406 -184.351562 22.703125 -184.75 C 19.960938 -185.15625 17.066406 -185.359375 14.015625 -185.359375 L 10.5 -185.359375 L 10.5 -196.953125 L 90.796875 -196.953125 L 90.796875 -185.359375 L 87.15625 -185.359375 C 84.101562 -185.359375 81.179688 -185.132812 78.390625 -184.6875 C 75.609375 -184.238281 73.207031 -183.316406 71.1875 -181.921875 C 69.175781 -180.535156 67.5625 -178.539062 66.34375 -175.9375 C 65.132812 -173.332031 64.53125 -169.875 64.53125 -165.5625 L 64.53125 -109.796875 L 154.25 -109.796875 L 154.25 -165.5625 C 154.25 -169.875 153.640625 -173.332031 152.421875 -175.9375 C 151.210938 -178.539062 149.597656 -180.535156 147.578125 -181.921875 C 145.554688 -183.316406 143.175781 -184.238281 140.4375 -184.6875 C 137.695312 -185.132812 134.753906 -185.359375 131.609375 -185.359375 L 127.984375 -185.359375 L 127.984375 -196.953125 L 208.265625 -196.953125 L 208.265625 -185.359375 L 204.765625 -185.359375 C 201.617188 -185.359375 198.675781 -185.132812 195.9375 -184.6875 C 193.195312 -184.238281 190.796875 -183.316406 188.734375 -181.921875 C 186.671875 -180.535156 185.050781 -178.539062 183.875 -175.9375 C 182.707031 -173.332031 182.125 -169.875 182.125 -165.5625 L 182.125 -30.046875 C 182.125 -26.003906 182.726562 -22.742188 183.9375 -20.265625 C 185.15625 -17.796875 186.796875 -15.929688 188.859375 -14.671875 C 190.929688 -13.421875 193.335938 -12.59375 196.078125 -12.1875 C 198.816406 -11.78125 201.710938 -11.578125 204.765625 -11.578125 L 208.265625 -11.578125 L 208.265625 0 Z M 127.984375 0 "/></g></g></g><g fill="#0b1e36" fill-opacity="1"><g transform="translate(1426.672325, 320.494886)"><g><path d="M 10.5 0 L 10.5 -11.578125 L 14.015625 -11.578125 C 17.148438 -11.578125 20.085938 -11.800781 22.828125 -12.25 C 25.566406 -12.707031 27.96875 -13.628906 30.03125 -15.015625 C 32.101562 -16.410156 33.722656 -18.410156 34.890625 -21.015625 C 36.054688 -23.617188 36.640625 -27.078125 36.640625 -31.390625 L 36.640625 -165.5625 C 36.640625 -169.875 36.054688 -173.332031 34.890625 -175.9375 C 33.722656 -178.539062 32.101562 -180.535156 30.03125 -181.921875 C 27.96875 -183.316406 25.566406 -184.238281 22.828125 -184.6875 C 20.085938 -185.132812 17.148438 -185.359375 14.015625 -185.359375 L 10.5 -185.359375 L 10.5 -196.953125 L 90.796875 -196.953125 L 90.796875 -185.359375 L 87.15625 -185.359375 C 84.101562 -185.359375 81.179688 -185.132812 78.390625 -184.6875 C 75.609375 -184.238281 73.207031 -183.316406 71.1875 -181.921875 C 69.175781 -180.535156 67.5625 -178.539062 66.34375 -175.9375 C 65.132812 -173.332031 64.53125 -169.875 64.53125 -165.5625 L 64.53125 -31.390625 C 64.53125 -27.078125 65.132812 -23.617188 66.34375 -21.015625 C 67.5625 -18.410156 69.175781 -16.410156 71.1875 -15.015625 C 73.207031 -13.628906 75.609375 -12.707031 78.390625 -12.25 C 81.179688 -11.800781 84.101562 -11.578125 87.15625 -11.578125 L 90.796875 -11.578125 L 90.796875 0 Z M 10.5 0 "/></g></g></g><g fill="#0b1e36" fill-opacity="1"><g transform="translate(1564.392159, 320.494886)"><g><path d="M 64.53125 -13.734375 L 117.734375 -13.734375 C 122.140625 -13.734375 125.890625 -14.335938 128.984375 -15.546875 C 132.085938 -16.765625 134.671875 -18.40625 136.734375 -20.46875 C 138.796875 -22.539062 140.410156 -24.945312 141.578125 -27.6875 C 142.742188 -30.425781 143.550781 -33.320312 144 -36.375 L 145.890625 -48.234375 L 160.3125 -48.234375 L 158.421875 0 L 10.5 0 L 10.5 -11.578125 L 14.015625 -11.578125 C 17.066406 -11.578125 19.960938 -11.78125 22.703125 -12.1875 C 25.441406 -12.59375 27.84375 -13.421875 29.90625 -14.671875 C 31.96875 -15.929688 33.601562 -17.796875 34.8125 -20.265625 C 36.03125 -22.742188 36.640625 -26.003906 36.640625 -30.046875 L 36.640625 -165.5625 C 36.640625 -169.875 36.054688 -173.332031 34.890625 -175.9375 C 33.722656 -178.539062 32.101562 -180.535156 30.03125 -181.921875 C 27.96875 -183.316406 25.566406 -184.238281 22.828125 -184.6875 C 20.085938 -185.132812 17.148438 -185.359375 14.015625 -185.359375 L 10.5 -185.359375 L 10.5 -196.953125 L 149.53125 -196.953125 L 150.875 -148.71875 L 136.59375 -148.71875 L 135.25 -160.578125 C 134.894531 -163.628906 134.195312 -166.523438 133.15625 -169.265625 C 132.125 -172.003906 130.644531 -174.40625 128.71875 -176.46875 C 126.789062 -178.539062 124.363281 -180.179688 121.4375 -181.390625 C 118.519531 -182.597656 115 -183.203125 110.875 -183.203125 L 64.53125 -183.203125 L 64.53125 -109.796875 L 131.078125 -109.796875 L 131.078125 -96.3125 L 64.53125 -96.3125 Z M 64.53125 -13.734375 "/></g></g></g><g fill="#0b1e36" fill-opacity="1"><g transform="translate(1772.700428, 320.494886)"><g><path d="M 10.5 0 L 10.5 -11.578125 L 14.015625 -11.578125 C 17.148438 -11.578125 20.085938 -11.800781 22.828125 -12.25 C 25.566406 -12.707031 27.96875 -13.628906 30.03125 -15.015625 C 32.101562 -16.410156 33.722656 -18.410156 34.890625 -21.015625 C 36.054688 -23.617188 36.640625 -27.078125 36.640625 -31.390625 L 36.640625 -165.5625 C 36.640625 -169.875 36.054688 -173.332031 34.890625 -175.9375 C 33.722656 -178.539062 32.101562 -180.535156 30.03125 -181.921875 C 27.96875 -183.316406 25.566406 -184.238281 22.828125 -184.6875 C 20.085938 -185.132812 17.148438 -185.359375 14.015625 -185.359375 L 10.5 -185.359375 L 10.5 -196.953125 L 90.796875 -196.953125 L 90.796875 -185.359375 L 87.15625 -185.359375 C 84.101562 -185.359375 81.207031 -185.15625 78.46875 -184.75 C 75.726562 -184.351562 73.328125 -183.476562 71.265625 -182.125 C 69.203125 -180.78125 67.5625 -178.875 66.34375 -176.40625 C 65.132812 -173.9375 64.53125 -170.679688 64.53125 -166.640625 L 64.53125 -13.734375 L 118.953125 -13.734375 C 123.078125 -13.734375 126.597656 -14.472656 129.515625 -15.953125 C 132.441406 -17.441406 134.847656 -19.375 136.734375 -21.75 C 138.617188 -24.132812 140.078125 -26.804688 141.109375 -29.765625 C 142.140625 -32.734375 142.835938 -35.695312 143.203125 -38.65625 L 145.890625 -59.265625 L 160.3125 -59.265625 L 158.421875 0 Z M 10.5 0 "/></g></g></g><g fill="#0b1e36" fill-opacity="1"><g transform="translate(1981.008697, 320.494886)"><g><path d="M 184.828125 -98.75 C 184.828125 -83.65625 182.941406 -70.023438 179.171875 -57.859375 C 175.398438 -45.691406 169.785156 -35.316406 162.328125 -26.734375 C 154.867188 -18.160156 145.523438 -11.5625 134.296875 -6.9375 C 123.078125 -2.3125 109.96875 0 94.96875 0 L 10.5 0 L 10.5 -11.578125 L 14.015625 -11.578125 C 17.148438 -11.578125 20.085938 -11.800781 22.828125 -12.25 C 25.566406 -12.707031 27.96875 -13.628906 30.03125 -15.015625 C 32.101562 -16.410156 33.722656 -18.410156 34.890625 -21.015625 C 36.054688 -23.617188 36.640625 -27.078125 36.640625 -31.390625 L 36.640625 -166.640625 C 36.640625 -170.679688 36.03125 -173.9375 34.8125 -176.40625 C 33.601562 -178.875 31.96875 -180.78125 29.90625 -182.125 C 27.84375 -183.476562 25.441406 -184.351562 22.703125 -184.75 C 19.960938 -185.15625 17.066406 -185.359375 14.015625 -185.359375 L 10.5 -185.359375 L 10.5 -196.953125 L 94.96875 -196.953125 C 109.15625 -196.953125 121.816406 -194.769531 132.953125 -190.40625 C 144.097656 -186.050781 153.507812 -179.695312 161.1875 -171.34375 C 168.863281 -163 174.722656 -152.71875 178.765625 -140.5 C 182.804688 -128.289062 184.828125 -114.375 184.828125 -98.75 Z M 88.5 -14.015625 C 99.457031 -14.015625 109.046875 -15.875 117.265625 -19.59375 C 125.484375 -23.320312 132.332031 -28.78125 137.8125 -35.96875 C 143.289062 -43.15625 147.398438 -52 150.140625 -62.5 C 152.878906 -73.007812 154.25 -85.09375 154.25 -98.75 C 154.25 -126.132812 148.789062 -147.054688 137.875 -161.515625 C 126.96875 -175.972656 110.601562 -183.203125 88.78125 -183.203125 L 64.53125 -183.203125 L 64.53125 -14.015625 Z M 88.5 -14.015625 "/></g></g></g></svg>