<svg xmlns="http://www.w3.org/2000/svg" xmlns:xlink="http://www.w3.org/1999/xlink" width="3000" zoomAndPan="magnify" viewBox="0 0 2250 449.999984" height="600" preserveAspectRatio="xMidYMid meet" version="1.0"><defs><g/></defs><g fill="#0b1e36" fill-opacity="1"><g transform="translate(25.51223, 311.249976)"><g><path d="M 50.921875 -60.140625 L 41.328125 -33.703125 C 40.585938 -31.734375 40.007812 -29.785156 39.59375 -27.859375 C 39.1875 -25.929688 38.984375 -24.269531 38.984375 -22.875 C 38.984375 -18.613281 40.359375 -15.5 43.109375 -13.53125 C 45.859375 -11.5625 50.0625 -10.578125 55.71875 -10.578125 L 61.5 -10.578125 L 61.5 0 L 0 0 L 0 -10.578125 L 4.796875 -10.578125 C 7.253906 -10.578125 9.34375 -10.84375 11.0625 -11.375 C 12.789062 -11.90625 14.347656 -12.910156 15.734375 -14.390625 C 17.128906 -15.867188 18.460938 -17.878906 19.734375 -20.421875 C 21.003906 -22.960938 22.421875 -26.238281 23.984375 -30.25 L 79.828125 -179.8125 L 99.5 -179.8125 L 156.453125 -23.984375 C 157.429688 -21.359375 158.429688 -19.179688 159.453125 -17.453125 C 160.484375 -15.734375 161.695312 -14.363281 163.09375 -13.34375 C 164.488281 -12.320312 166.085938 -11.601562 167.890625 -11.1875 C 169.691406 -10.78125 171.820312 -10.578125 174.28125 -10.578125 L 177.609375 -10.578125 L 177.609375 0 L 108.359375 0 L 108.359375 -10.578125 L 114.140625 -10.578125 C 124.222656 -10.578125 129.265625 -14.59375 129.265625 -22.625 C 129.265625 -24.019531 129.078125 -25.457031 128.703125 -26.9375 C 128.335938 -28.414062 127.828125 -30.097656 127.171875 -31.984375 L 117.09375 -60.140625 Z M 96.921875 -116.84375 C 94.296875 -124.300781 91.894531 -131.289062 89.71875 -137.8125 C 87.550781 -144.332031 85.769531 -150.625 84.375 -156.6875 C 83.800781 -153.65625 83.125 -150.722656 82.34375 -147.890625 C 81.5625 -145.066406 80.71875 -142.175781 79.8125 -139.21875 C 78.914062 -136.269531 77.894531 -133.175781 76.75 -129.9375 C 75.601562 -126.695312 74.289062 -123.113281 72.8125 -119.1875 L 55.71875 -72.8125 L 112.53125 -72.8125 Z M 96.921875 -116.84375 "/></g></g></g><g fill="#0b1e36" fill-opacity="1"><g transform="translate(236.368091, 311.249976)"><g><path d="M 91.140625 2.453125 C 81.210938 2.453125 72.3125 1.410156 64.4375 -0.671875 C 56.570312 -2.765625 49.910156 -6.085938 44.453125 -10.640625 C 39.003906 -15.191406 34.84375 -21.050781 31.96875 -28.21875 C 29.101562 -35.394531 27.671875 -44.109375 27.671875 -54.359375 L 27.671875 -152.140625 C 27.671875 -155.828125 27.117188 -158.796875 26.015625 -161.046875 C 24.910156 -163.304688 23.410156 -165.050781 21.515625 -166.28125 C 19.628906 -167.507812 17.4375 -168.304688 14.9375 -168.671875 C 12.4375 -169.046875 9.796875 -169.234375 7.015625 -169.234375 L 3.8125 -169.234375 L 3.8125 -179.8125 L 77.109375 -179.8125 L 77.109375 -169.234375 L 73.796875 -169.234375 C 71.003906 -169.234375 68.335938 -169.03125 65.796875 -168.625 C 63.253906 -168.21875 61.0625 -167.378906 59.21875 -166.109375 C 57.375 -164.835938 55.898438 -163.007812 54.796875 -160.625 C 53.691406 -158.25 53.140625 -155.09375 53.140625 -151.15625 L 53.140625 -52.890625 C 53.140625 -45.585938 54.179688 -39.375 56.265625 -34.25 C 58.359375 -29.125 61.269531 -24.960938 65 -21.765625 C 68.726562 -18.566406 73.15625 -16.226562 78.28125 -14.75 C 83.40625 -13.28125 89.046875 -12.546875 95.203125 -12.546875 C 102.492188 -12.546875 108.785156 -13.53125 114.078125 -15.5 C 119.367188 -17.46875 123.753906 -20.191406 127.234375 -23.671875 C 130.722656 -27.160156 133.304688 -31.300781 134.984375 -36.09375 C 136.660156 -40.894531 137.5 -46.164062 137.5 -51.90625 L 137.5 -152.140625 C 137.5 -155.828125 136.945312 -158.796875 135.84375 -161.046875 C 134.738281 -163.304688 133.242188 -165.050781 131.359375 -166.28125 C 129.472656 -167.507812 127.28125 -168.304688 124.78125 -168.671875 C 122.28125 -169.046875 119.632812 -169.234375 116.84375 -169.234375 L 113.640625 -169.234375 L 113.640625 -179.8125 L 176.859375 -179.8125 L 176.859375 -169.234375 L 173.546875 -169.234375 C 170.753906 -169.234375 168.085938 -169.03125 165.546875 -168.625 C 163.003906 -168.21875 160.8125 -167.378906 158.96875 -166.109375 C 157.125 -164.835938 155.644531 -163.007812 154.53125 -160.625 C 153.425781 -158.25 152.875 -155.09375 152.875 -151.15625 L 152.875 -51.40625 C 152.875 -43.039062 151.539062 -35.515625 148.875 -28.828125 C 146.21875 -22.148438 142.285156 -16.492188 137.078125 -11.859375 C 131.867188 -7.234375 125.410156 -3.691406 117.703125 -1.234375 C 109.992188 1.222656 101.140625 2.453125 91.140625 2.453125 Z M 91.140625 2.453125 "/></g></g></g><g fill="#0b1e36" fill-opacity="1"><g transform="translate(450.175847, 311.249976)"><g><path d="M 139.59375 -30.75 C 143.863281 -24.019531 148.003906 -18.972656 152.015625 -15.609375 C 156.035156 -12.253906 160.710938 -10.578125 166.046875 -10.578125 L 166.78125 -10.578125 L 166.78125 0 L 163.21875 0 C 155.34375 0 148.882812 -0.285156 143.84375 -0.859375 C 138.800781 -1.429688 134.515625 -2.535156 130.984375 -4.171875 C 127.460938 -5.816406 124.453125 -8.113281 121.953125 -11.0625 C 119.453125 -14.019531 116.765625 -17.875 113.890625 -22.625 L 79.828125 -79.328125 L 58.90625 -79.328125 L 58.90625 -27.421875 C 58.90625 -23.734375 59.457031 -20.757812 60.5625 -18.5 C 61.675781 -16.25 63.175781 -14.550781 65.0625 -13.40625 C 66.945312 -12.257812 69.140625 -11.5 71.640625 -11.125 C 74.140625 -10.757812 76.785156 -10.578125 79.578125 -10.578125 L 82.890625 -10.578125 L 82.890625 0 L 9.59375 0 L 9.59375 -10.578125 L 12.796875 -10.578125 C 15.578125 -10.578125 18.21875 -10.757812 20.71875 -11.125 C 23.21875 -11.5 25.410156 -12.257812 27.296875 -13.40625 C 29.191406 -14.550781 30.691406 -16.25 31.796875 -18.5 C 32.898438 -20.757812 33.453125 -23.734375 33.453125 -27.421875 L 33.453125 -152.140625 C 33.453125 -155.828125 32.898438 -158.796875 31.796875 -161.046875 C 30.691406 -163.304688 29.191406 -165.050781 27.296875 -166.28125 C 25.410156 -167.507812 23.21875 -168.304688 20.71875 -168.671875 C 18.21875 -169.046875 15.578125 -169.234375 12.796875 -169.234375 L 9.59375 -169.234375 L 9.59375 -179.8125 L 77.359375 -179.8125 C 99.171875 -179.8125 115.40625 -175.773438 126.0625 -167.703125 C 136.726562 -159.628906 142.0625 -147.472656 142.0625 -131.234375 C 142.0625 -124.515625 140.972656 -118.628906 138.796875 -113.578125 C 136.617188 -108.535156 133.769531 -104.171875 130.25 -100.484375 C 126.726562 -96.796875 122.75 -93.722656 118.3125 -91.265625 C 113.882812 -88.804688 109.457031 -86.835938 105.03125 -85.359375 Z M 58.90625 -91.140625 L 76.625 -91.140625 C 84 -91.140625 90.144531 -91.957031 95.0625 -93.59375 C 99.988281 -95.238281 103.925781 -97.695312 106.875 -100.96875 C 109.832031 -104.25 111.945312 -108.347656 113.21875 -113.265625 C 114.488281 -118.191406 115.125 -123.9375 115.125 -130.5 C 115.125 -137.21875 114.425781 -142.929688 113.03125 -147.640625 C 111.632812 -152.359375 109.378906 -156.210938 106.265625 -159.203125 C 103.148438 -162.203125 99.109375 -164.378906 94.140625 -165.734375 C 89.179688 -167.085938 83.140625 -167.765625 76.015625 -167.765625 L 58.90625 -167.765625 Z M 58.90625 -91.140625 "/></g></g></g><g fill="#0b1e36" fill-opacity="1"><g transform="translate(648.609197, 311.249976)"><g><path d="M 91.140625 2.453125 C 81.210938 2.453125 72.3125 1.410156 64.4375 -0.671875 C 56.570312 -2.765625 49.910156 -6.085938 44.453125 -10.640625 C 39.003906 -15.191406 34.84375 -21.050781 31.96875 -28.21875 C 29.101562 -35.394531 27.671875 -44.109375 27.671875 -54.359375 L 27.671875 -152.140625 C 27.671875 -155.828125 27.117188 -158.796875 26.015625 -161.046875 C 24.910156 -163.304688 23.410156 -165.050781 21.515625 -166.28125 C 19.628906 -167.507812 17.4375 -168.304688 14.9375 -168.671875 C 12.4375 -169.046875 9.796875 -169.234375 7.015625 -169.234375 L 3.8125 -169.234375 L 3.8125 -179.8125 L 77.109375 -179.8125 L 77.109375 -169.234375 L 73.796875 -169.234375 C 71.003906 -169.234375 68.335938 -169.03125 65.796875 -168.625 C 63.253906 -168.21875 61.0625 -167.378906 59.21875 -166.109375 C 57.375 -164.835938 55.898438 -163.007812 54.796875 -160.625 C 53.691406 -158.25 53.140625 -155.09375 53.140625 -151.15625 L 53.140625 -52.890625 C 53.140625 -45.585938 54.179688 -39.375 56.265625 -34.25 C 58.359375 -29.125 61.269531 -24.960938 65 -21.765625 C 68.726562 -18.566406 73.15625 -16.226562 78.28125 -14.75 C 83.40625 -13.28125 89.046875 -12.546875 95.203125 -12.546875 C 102.492188 -12.546875 108.785156 -13.53125 114.078125 -15.5 C 119.367188 -17.46875 123.753906 -20.191406 127.234375 -23.671875 C 130.722656 -27.160156 133.304688 -31.300781 134.984375 -36.09375 C 136.660156 -40.894531 137.5 -46.164062 137.5 -51.90625 L 137.5 -152.140625 C 137.5 -155.828125 136.945312 -158.796875 135.84375 -161.046875 C 134.738281 -163.304688 133.242188 -165.050781 131.359375 -166.28125 C 129.472656 -167.507812 127.28125 -168.304688 124.78125 -168.671875 C 122.28125 -169.046875 119.632812 -169.234375 116.84375 -169.234375 L 113.640625 -169.234375 L 113.640625 -179.8125 L 176.859375 -179.8125 L 176.859375 -169.234375 L 173.546875 -169.234375 C 170.753906 -169.234375 168.085938 -169.03125 165.546875 -168.625 C 163.003906 -168.21875 160.8125 -167.378906 158.96875 -166.109375 C 157.125 -164.835938 155.644531 -163.007812 154.53125 -160.625 C 153.425781 -158.25 152.875 -155.09375 152.875 -151.15625 L 152.875 -51.40625 C 152.875 -43.039062 151.539062 -35.515625 148.875 -28.828125 C 146.21875 -22.148438 142.285156 -16.492188 137.078125 -11.859375 C 131.867188 -7.234375 125.410156 -3.691406 117.703125 -1.234375 C 109.992188 1.222656 101.140625 2.453125 91.140625 2.453125 Z M 91.140625 2.453125 "/></g></g></g><g fill="#0b1e36" fill-opacity="1"><g transform="translate(862.416952, 311.249976)"><g><path d="M 159.640625 0 L 159.640625 -10.578125 L 160.5 -10.578125 C 163.207031 -10.578125 165.644531 -10.757812 167.8125 -11.125 C 169.988281 -11.5 171.835938 -12.238281 173.359375 -13.34375 C 174.878906 -14.445312 176.085938 -16.046875 176.984375 -18.140625 C 177.890625 -20.234375 178.425781 -23 178.59375 -26.4375 L 178.59375 -161 L 120.90625 0 L 107.25 0 L 48.828125 -160.5 L 48.828125 -28.65625 C 48.828125 -24.71875 49.234375 -21.5625 50.046875 -19.1875 C 50.867188 -16.8125 52.078125 -14.988281 53.671875 -13.71875 C 55.273438 -12.445312 57.203125 -11.601562 59.453125 -11.1875 C 61.710938 -10.78125 64.238281 -10.578125 67.03125 -10.578125 L 67.765625 -10.578125 L 67.765625 0 L 9.59375 0 L 9.59375 -10.578125 L 12.796875 -10.578125 C 15.578125 -10.578125 18.21875 -10.757812 20.71875 -11.125 C 23.21875 -11.5 25.410156 -12.257812 27.296875 -13.40625 C 29.191406 -14.550781 30.691406 -16.25 31.796875 -18.5 C 32.898438 -20.757812 33.453125 -23.734375 33.453125 -27.421875 L 33.453125 -152.140625 C 33.453125 -155.828125 32.898438 -158.796875 31.796875 -161.046875 C 30.691406 -163.304688 29.191406 -165.050781 27.296875 -166.28125 C 25.410156 -167.507812 23.21875 -168.304688 20.71875 -168.671875 C 18.21875 -169.046875 15.578125 -169.234375 12.796875 -169.234375 L 9.59375 -169.234375 L 9.59375 -179.8125 L 67.03125 -179.8125 L 119.1875 -35.796875 L 170.84375 -179.8125 L 226.671875 -179.8125 L 226.671875 -169.234375 L 223.484375 -169.234375 C 220.609375 -169.234375 217.921875 -169.03125 215.421875 -168.625 C 212.921875 -168.21875 210.726562 -167.378906 208.84375 -166.109375 C 206.957031 -164.835938 205.476562 -163.007812 204.40625 -160.625 C 203.34375 -158.25 202.8125 -155.09375 202.8125 -151.15625 L 202.8125 -28.65625 C 202.8125 -24.71875 203.34375 -21.5625 204.40625 -19.1875 C 205.476562 -16.8125 206.957031 -14.988281 208.84375 -13.71875 C 210.726562 -12.445312 212.921875 -11.601562 215.421875 -11.1875 C 217.921875 -10.78125 220.609375 -10.578125 223.484375 -10.578125 L 226.671875 -10.578125 L 226.671875 0 Z M 159.640625 0 "/></g></g></g><g fill="#0b1e36" fill-opacity="1"><g transform="translate(1131.941679, 311.249976)"><g><path d="M 62.234375 2.453125 C 54.035156 2.453125 46.800781 1.59375 40.53125 -0.125 C 34.257812 -1.84375 29.007812 -4.238281 24.78125 -7.3125 C 20.5625 -10.394531 17.382812 -14.128906 15.25 -18.515625 C 13.113281 -22.898438 12.046875 -27.71875 12.046875 -32.96875 C 12.046875 -38.050781 13.625 -42.148438 16.78125 -45.265625 C 19.945312 -48.378906 24.4375 -49.9375 30.25 -49.9375 C 30.5 -44.6875 31.300781 -39.640625 32.65625 -34.796875 C 34.007812 -29.960938 36.035156 -25.703125 38.734375 -22.015625 C 41.441406 -18.328125 44.882812 -15.375 49.0625 -13.15625 C 53.25 -10.945312 58.296875 -9.84375 64.203125 -9.84375 C 75.515625 -9.84375 84.347656 -12.566406 90.703125 -18.015625 C 97.054688 -23.472656 100.234375 -31.328125 100.234375 -41.578125 C 100.234375 -46.160156 99.578125 -50.210938 98.265625 -53.734375 C 96.953125 -57.265625 94.78125 -60.523438 91.75 -63.515625 C 88.71875 -66.515625 84.71875 -69.382812 79.75 -72.125 C 74.789062 -74.875 68.625 -77.769531 61.25 -80.8125 C 53.457031 -84.007812 46.648438 -87.429688 40.828125 -91.078125 C 35.003906 -94.722656 30.164062 -98.78125 26.3125 -103.25 C 22.46875 -107.71875 19.597656 -112.695312 17.703125 -118.1875 C 15.816406 -123.6875 14.875 -129.878906 14.875 -136.765625 C 14.875 -143.984375 16.25 -150.421875 19 -156.078125 C 21.75 -161.734375 25.582031 -166.507812 30.5 -170.40625 C 35.414062 -174.300781 41.234375 -177.273438 47.953125 -179.328125 C 54.679688 -181.378906 62.023438 -182.40625 69.984375 -182.40625 C 77.523438 -182.40625 84.207031 -181.625 90.03125 -180.0625 C 95.851562 -178.5 100.769531 -176.40625 104.78125 -173.78125 C 108.800781 -171.164062 111.859375 -168.15625 113.953125 -164.75 C 116.046875 -161.34375 117.09375 -157.796875 117.09375 -154.109375 C 117.09375 -148.703125 115.304688 -144.625 111.734375 -141.875 C 108.171875 -139.125 103.351562 -137.75 97.28125 -137.75 C 97.28125 -141.6875 96.804688 -145.5625 95.859375 -149.375 C 94.921875 -153.1875 93.34375 -156.585938 91.125 -159.578125 C 88.914062 -162.578125 86.007812 -165.019531 82.40625 -166.90625 C 78.800781 -168.789062 74.332031 -169.734375 69 -169.734375 C 64.164062 -169.734375 59.835938 -169.054688 56.015625 -167.703125 C 52.203125 -166.347656 48.984375 -164.421875 46.359375 -161.921875 C 43.742188 -159.421875 41.738281 -156.40625 40.34375 -152.875 C 38.945312 -149.351562 38.25 -145.421875 38.25 -141.078125 C 38.25 -136.078125 38.90625 -131.664062 40.21875 -127.84375 C 41.53125 -124.03125 43.722656 -120.585938 46.796875 -117.515625 C 49.867188 -114.441406 53.90625 -111.53125 58.90625 -108.78125 C 63.914062 -106.039062 70.066406 -103.191406 77.359375 -100.234375 C 84.742188 -97.203125 91.328125 -94.003906 97.109375 -90.640625 C 102.890625 -87.285156 107.785156 -83.535156 111.796875 -79.390625 C 115.816406 -75.253906 118.890625 -70.625 121.015625 -65.5 C 123.148438 -60.375 124.21875 -54.570312 124.21875 -48.09375 C 124.21875 -40.132812 122.757812 -33.019531 119.84375 -26.75 C 116.9375 -20.476562 112.773438 -15.171875 107.359375 -10.828125 C 101.953125 -6.484375 95.4375 -3.179688 87.8125 -0.921875 C 80.1875 1.328125 71.660156 2.453125 62.234375 2.453125 Z M 62.234375 2.453125 "/></g></g></g><g fill="#0b1e36" fill-opacity="1"><g transform="translate(1302.209058, 311.249976)"><g><path d="M 116.84375 0 L 116.84375 -10.578125 L 120.171875 -10.578125 C 123.035156 -10.578125 125.71875 -10.78125 128.21875 -11.1875 C 130.71875 -11.601562 132.890625 -12.445312 134.734375 -13.71875 C 136.578125 -14.988281 138.050781 -16.8125 139.15625 -19.1875 C 140.269531 -21.5625 140.828125 -24.71875 140.828125 -28.65625 L 140.828125 -87.6875 L 58.90625 -87.6875 L 58.90625 -28.65625 C 58.90625 -24.71875 59.457031 -21.5625 60.5625 -19.1875 C 61.675781 -16.8125 63.15625 -14.988281 65 -13.71875 C 66.84375 -12.445312 69.035156 -11.601562 71.578125 -11.1875 C 74.117188 -10.78125 76.785156 -10.578125 79.578125 -10.578125 L 82.890625 -10.578125 L 82.890625 0 L 9.59375 0 L 9.59375 -10.578125 L 12.796875 -10.578125 C 15.660156 -10.578125 18.34375 -10.78125 20.84375 -11.1875 C 23.34375 -11.601562 25.535156 -12.445312 27.421875 -13.71875 C 29.304688 -14.988281 30.78125 -16.8125 31.84375 -19.1875 C 32.914062 -21.5625 33.453125 -24.71875 33.453125 -28.65625 L 33.453125 -152.140625 C 33.453125 -155.828125 32.898438 -158.796875 31.796875 -161.046875 C 30.691406 -163.304688 29.191406 -165.050781 27.296875 -166.28125 C 25.410156 -167.507812 23.21875 -168.304688 20.71875 -168.671875 C 18.21875 -169.046875 15.578125 -169.234375 12.796875 -169.234375 L 9.59375 -169.234375 L 9.59375 -179.8125 L 82.890625 -179.8125 L 82.890625 -169.234375 L 79.578125 -169.234375 C 76.785156 -169.234375 74.117188 -169.03125 71.578125 -168.625 C 69.035156 -168.21875 66.84375 -167.378906 65 -166.109375 C 63.15625 -164.835938 61.675781 -163.007812 60.5625 -160.625 C 59.457031 -158.25 58.90625 -155.09375 58.90625 -151.15625 L 58.90625 -100.234375 L 140.828125 -100.234375 L 140.828125 -151.15625 C 140.828125 -155.09375 140.269531 -158.25 139.15625 -160.625 C 138.050781 -163.007812 136.578125 -164.835938 134.734375 -166.109375 C 132.890625 -167.378906 130.71875 -168.21875 128.21875 -168.625 C 125.71875 -169.03125 123.035156 -169.234375 120.171875 -169.234375 L 116.84375 -169.234375 L 116.84375 -179.8125 L 190.140625 -179.8125 L 190.140625 -169.234375 L 186.953125 -169.234375 C 184.078125 -169.234375 181.390625 -169.03125 178.890625 -168.625 C 176.390625 -168.21875 174.195312 -167.378906 172.3125 -166.109375 C 170.425781 -164.835938 168.945312 -163.007812 167.875 -160.625 C 166.8125 -158.25 166.28125 -155.09375 166.28125 -151.15625 L 166.28125 -27.421875 C 166.28125 -23.734375 166.832031 -20.757812 167.9375 -18.5 C 169.050781 -16.25 170.550781 -14.550781 172.4375 -13.40625 C 174.320312 -12.257812 176.515625 -11.5 179.015625 -11.125 C 181.515625 -10.757812 184.160156 -10.578125 186.953125 -10.578125 L 190.140625 -10.578125 L 190.140625 0 Z M 116.84375 0 "/></g></g></g><g fill="#0b1e36" fill-opacity="1"><g transform="translate(1535.204063, 311.249976)"><g><path d="M 9.59375 0 L 9.59375 -10.578125 L 12.796875 -10.578125 C 15.660156 -10.578125 18.34375 -10.78125 20.84375 -11.1875 C 23.34375 -11.601562 25.535156 -12.445312 27.421875 -13.71875 C 29.304688 -14.988281 30.78125 -16.8125 31.84375 -19.1875 C 32.914062 -21.5625 33.453125 -24.71875 33.453125 -28.65625 L 33.453125 -151.15625 C 33.453125 -155.09375 32.914062 -158.25 31.84375 -160.625 C 30.78125 -163.007812 29.304688 -164.835938 27.421875 -166.109375 C 25.535156 -167.378906 23.34375 -168.21875 20.84375 -168.625 C 18.34375 -169.03125 15.660156 -169.234375 12.796875 -169.234375 L 9.59375 -169.234375 L 9.59375 -179.8125 L 82.890625 -179.8125 L 82.890625 -169.234375 L 79.578125 -169.234375 C 76.785156 -169.234375 74.117188 -169.03125 71.578125 -168.625 C 69.035156 -168.21875 66.84375 -167.378906 65 -166.109375 C 63.15625 -164.835938 61.675781 -163.007812 60.5625 -160.625 C 59.457031 -158.25 58.90625 -155.09375 58.90625 -151.15625 L 58.90625 -28.65625 C 58.90625 -24.71875 59.457031 -21.5625 60.5625 -19.1875 C 61.675781 -16.8125 63.15625 -14.988281 65 -13.71875 C 66.84375 -12.445312 69.035156 -11.601562 71.578125 -11.1875 C 74.117188 -10.78125 76.785156 -10.578125 79.578125 -10.578125 L 82.890625 -10.578125 L 82.890625 0 Z M 9.59375 0 "/></g></g></g><g fill="#0b1e36" fill-opacity="1"><g transform="translate(1660.946973, 311.249976)"><g><path d="M 58.90625 -12.546875 L 107.5 -12.546875 C 111.507812 -12.546875 114.929688 -13.097656 117.765625 -14.203125 C 120.597656 -15.304688 122.957031 -16.800781 124.84375 -18.6875 C 126.726562 -20.582031 128.203125 -22.78125 129.265625 -25.28125 C 130.328125 -27.78125 131.066406 -30.421875 131.484375 -33.203125 L 133.203125 -44.03125 L 146.359375 -44.03125 L 144.640625 0 L 9.59375 0 L 9.59375 -10.578125 L 12.796875 -10.578125 C 15.578125 -10.578125 18.21875 -10.757812 20.71875 -11.125 C 23.21875 -11.5 25.410156 -12.257812 27.296875 -13.40625 C 29.191406 -14.550781 30.691406 -16.25 31.796875 -18.5 C 32.898438 -20.757812 33.453125 -23.734375 33.453125 -27.421875 L 33.453125 -151.15625 C 33.453125 -155.09375 32.914062 -158.25 31.84375 -160.625 C 30.78125 -163.007812 29.304688 -164.835938 27.421875 -166.109375 C 25.535156 -167.378906 23.34375 -168.21875 20.84375 -168.625 C 18.34375 -169.03125 15.660156 -169.234375 12.796875 -169.234375 L 9.59375 -169.234375 L 9.59375 -179.8125 L 136.515625 -179.8125 L 137.75 -135.78125 L 124.71875 -135.78125 L 123.484375 -146.609375 C 123.160156 -149.398438 122.523438 -152.046875 121.578125 -154.546875 C 120.640625 -157.046875 119.285156 -159.238281 117.515625 -161.125 C 115.753906 -163.007812 113.539062 -164.503906 110.875 -165.609375 C 108.207031 -166.710938 104.988281 -167.265625 101.21875 -167.265625 L 58.90625 -167.265625 L 58.90625 -100.234375 L 119.671875 -100.234375 L 119.671875 -87.9375 L 58.90625 -87.9375 Z M 58.90625 -12.546875 "/></g></g></g><g fill="#0b1e36" fill-opacity="1"><g transform="translate(1851.139706, 311.249976)"><g><path d="M 9.59375 0 L 9.59375 -10.578125 L 12.796875 -10.578125 C 15.660156 -10.578125 18.34375 -10.78125 20.84375 -11.1875 C 23.34375 -11.601562 25.535156 -12.445312 27.421875 -13.71875 C 29.304688 -14.988281 30.78125 -16.8125 31.84375 -19.1875 C 32.914062 -21.5625 33.453125 -24.71875 33.453125 -28.65625 L 33.453125 -151.15625 C 33.453125 -155.09375 32.914062 -158.25 31.84375 -160.625 C 30.78125 -163.007812 29.304688 -164.835938 27.421875 -166.109375 C 25.535156 -167.378906 23.34375 -168.21875 20.84375 -168.625 C 18.34375 -169.03125 15.660156 -169.234375 12.796875 -169.234375 L 9.59375 -169.234375 L 9.59375 -179.8125 L 82.890625 -179.8125 L 82.890625 -169.234375 L 79.578125 -169.234375 C 76.785156 -169.234375 74.140625 -169.046875 71.640625 -168.671875 C 69.140625 -168.304688 66.945312 -167.507812 65.0625 -166.28125 C 63.175781 -165.050781 61.675781 -163.304688 60.5625 -161.046875 C 59.457031 -158.796875 58.90625 -155.828125 58.90625 -152.140625 L 58.90625 -12.546875 L 108.609375 -12.546875 C 112.378906 -12.546875 115.59375 -13.222656 118.25 -14.578125 C 120.914062 -15.929688 123.109375 -17.691406 124.828125 -19.859375 C 126.554688 -22.035156 127.890625 -24.472656 128.828125 -27.171875 C 129.773438 -29.878906 130.410156 -32.585938 130.734375 -35.296875 L 133.203125 -54.109375 L 146.359375 -54.109375 L 144.640625 0 Z M 9.59375 0 "/></g></g></g><g fill="#0b1e36" fill-opacity="1"><g transform="translate(2041.332258, 311.249976)"><g><path d="M 168.75 -90.15625 C 168.75 -76.375 167.023438 -63.925781 163.578125 -52.8125 C 160.140625 -41.707031 155.015625 -32.238281 148.203125 -24.40625 C 141.398438 -16.582031 132.875 -10.554688 122.625 -6.328125 C 112.375 -2.109375 100.398438 0 86.703125 0 L 9.59375 0 L 9.59375 -10.578125 L 12.796875 -10.578125 C 15.660156 -10.578125 18.34375 -10.78125 20.84375 -11.1875 C 23.34375 -11.601562 25.535156 -12.445312 27.421875 -13.71875 C 29.304688 -14.988281 30.78125 -16.8125 31.84375 -19.1875 C 32.914062 -21.5625 33.453125 -24.71875 33.453125 -28.65625 L 33.453125 -152.140625 C 33.453125 -155.828125 32.898438 -158.796875 31.796875 -161.046875 C 30.691406 -163.304688 29.191406 -165.050781 27.296875 -166.28125 C 25.410156 -167.507812 23.21875 -168.304688 20.71875 -168.671875 C 18.21875 -169.046875 15.578125 -169.234375 12.796875 -169.234375 L 9.59375 -169.234375 L 9.59375 -179.8125 L 86.703125 -179.8125 C 99.660156 -179.8125 111.222656 -177.820312 121.390625 -173.84375 C 131.554688 -169.875 140.144531 -164.078125 147.15625 -156.453125 C 154.164062 -148.828125 159.515625 -139.4375 163.203125 -128.28125 C 166.898438 -117.132812 168.75 -104.425781 168.75 -90.15625 Z M 80.8125 -12.796875 C 90.8125 -12.796875 99.5625 -14.492188 107.0625 -17.890625 C 114.5625 -21.296875 120.8125 -26.273438 125.8125 -32.828125 C 130.820312 -39.390625 134.578125 -47.46875 137.078125 -57.0625 C 139.578125 -66.65625 140.828125 -77.6875 140.828125 -90.15625 C 140.828125 -115.164062 135.84375 -134.269531 125.875 -147.46875 C 115.914062 -160.664062 100.972656 -167.265625 81.046875 -167.265625 L 58.90625 -167.265625 L 58.90625 -12.796875 Z M 80.8125 -12.796875 "/></g></g></g></svg>