<svg xmlns="http://www.w3.org/2000/svg" xmlns:xlink="http://www.w3.org/1999/xlink" width="3000" zoomAndPan="magnify" viewBox="0 0 2250 449.999984" height="600" preserveAspectRatio="xMidYMid meet" version="1.0"><defs><g/></defs><g fill="#d0a85c" fill-opacity="1"><g transform="translate(23.281377, 311.624976)"><g><path d="M 51.03125 -60.265625 L 41.40625 -33.765625 C 40.664062 -31.796875 40.085938 -29.84375 39.671875 -27.90625 C 39.265625 -25.976562 39.0625 -24.316406 39.0625 -22.921875 C 39.0625 -18.648438 40.4375 -15.523438 43.1875 -13.546875 C 45.945312 -11.578125 50.160156 -10.59375 55.828125 -10.59375 L 61.625 -10.59375 L 61.625 0 L 0 0 L 0 -10.59375 L 4.8125 -10.59375 C 7.269531 -10.59375 9.363281 -10.859375 11.09375 -11.390625 C 12.820312 -11.929688 14.382812 -12.941406 15.78125 -14.421875 C 17.175781 -15.898438 18.507812 -17.910156 19.78125 -20.453125 C 21.050781 -23.003906 22.46875 -26.289062 24.03125 -30.3125 L 79.984375 -180.1875 L 99.703125 -180.1875 L 156.765625 -24.03125 C 157.753906 -21.40625 158.757812 -19.226562 159.78125 -17.5 C 160.8125 -15.769531 162.023438 -14.390625 163.421875 -13.359375 C 164.816406 -12.335938 166.414062 -11.617188 168.21875 -11.203125 C 170.03125 -10.796875 172.171875 -10.59375 174.640625 -10.59375 L 177.96875 -10.59375 L 177.96875 0 L 108.578125 0 L 108.578125 -10.59375 L 114.375 -10.59375 C 124.476562 -10.59375 129.53125 -14.617188 129.53125 -22.671875 C 129.53125 -24.066406 129.34375 -25.503906 128.96875 -26.984375 C 128.601562 -28.460938 128.09375 -30.148438 127.4375 -32.046875 L 117.328125 -60.265625 Z M 97.125 -117.078125 C 94.488281 -124.554688 92.082031 -131.5625 89.90625 -138.09375 C 87.726562 -144.625 85.941406 -150.929688 84.546875 -157.015625 C 83.972656 -153.972656 83.296875 -151.035156 82.515625 -148.203125 C 81.734375 -145.367188 80.890625 -142.472656 79.984375 -139.515625 C 79.078125 -136.554688 78.046875 -133.453125 76.890625 -130.203125 C 75.742188 -126.960938 74.4375 -123.367188 72.96875 -119.421875 L 55.828125 -72.96875 L 112.765625 -72.96875 Z M 97.125 -117.078125 "/></g></g></g><g fill="#d0a85c" fill-opacity="1"><g transform="translate(234.564746, 311.624976)"><g><path d="M 91.328125 2.46875 C 81.378906 2.46875 72.460938 1.421875 64.578125 -0.671875 C 56.691406 -2.773438 50.015625 -6.101562 44.546875 -10.65625 C 39.085938 -15.21875 34.921875 -21.09375 32.046875 -28.28125 C 29.171875 -35.46875 27.734375 -44.195312 27.734375 -54.46875 L 27.734375 -152.453125 C 27.734375 -156.148438 27.175781 -159.128906 26.0625 -161.390625 C 24.957031 -163.648438 23.457031 -165.394531 21.5625 -166.625 C 19.675781 -167.851562 17.476562 -168.648438 14.96875 -169.015625 C 12.46875 -169.390625 9.820312 -169.578125 7.03125 -169.578125 L 3.828125 -169.578125 L 3.828125 -180.1875 L 77.28125 -180.1875 L 77.28125 -169.578125 L 73.953125 -169.578125 C 71.148438 -169.578125 68.472656 -169.375 65.921875 -168.96875 C 63.378906 -168.5625 61.179688 -167.71875 59.328125 -166.4375 C 57.484375 -165.164062 56.003906 -163.335938 54.890625 -160.953125 C 53.785156 -158.578125 53.234375 -155.414062 53.234375 -151.46875 L 53.234375 -53 C 53.234375 -45.6875 54.28125 -39.460938 56.375 -34.328125 C 58.476562 -29.191406 61.398438 -25.019531 65.140625 -21.8125 C 68.878906 -18.613281 73.3125 -16.273438 78.4375 -14.796875 C 83.570312 -13.316406 89.222656 -12.578125 95.390625 -12.578125 C 102.703125 -12.578125 109.007812 -13.5625 114.3125 -15.53125 C 119.613281 -17.5 124.007812 -20.226562 127.5 -23.71875 C 130.988281 -27.21875 133.570312 -31.367188 135.25 -36.171875 C 136.9375 -40.972656 137.78125 -46.253906 137.78125 -52.015625 L 137.78125 -152.453125 C 137.78125 -156.148438 137.222656 -159.128906 136.109375 -161.390625 C 135.003906 -163.648438 133.507812 -165.394531 131.625 -166.625 C 129.738281 -167.851562 127.539062 -168.648438 125.03125 -169.015625 C 122.519531 -169.390625 119.867188 -169.578125 117.078125 -169.578125 L 113.875 -169.578125 L 113.875 -180.1875 L 177.234375 -180.1875 L 177.234375 -169.578125 L 173.90625 -169.578125 C 171.101562 -169.578125 168.425781 -169.375 165.875 -168.96875 C 163.332031 -168.5625 161.132812 -167.71875 159.28125 -166.4375 C 157.4375 -165.164062 155.957031 -163.335938 154.84375 -160.953125 C 153.738281 -158.578125 153.1875 -155.414062 153.1875 -151.46875 L 153.1875 -51.515625 C 153.1875 -43.140625 151.851562 -35.601562 149.1875 -28.90625 C 146.519531 -22.207031 142.578125 -16.535156 137.359375 -11.890625 C 132.140625 -7.253906 125.664062 -3.703125 117.9375 -1.234375 C 110.21875 1.234375 101.347656 2.46875 91.328125 2.46875 Z M 91.328125 2.46875 "/></g></g></g><g fill="#d0a85c" fill-opacity="1"><g transform="translate(448.806002, 311.624976)"><g><path d="M 139.890625 -30.8125 C 144.160156 -24.070312 148.304688 -19.015625 152.328125 -15.640625 C 156.359375 -12.273438 161.039062 -10.59375 166.375 -10.59375 L 167.125 -10.59375 L 167.125 0 L 163.546875 0 C 155.660156 0 149.191406 -0.285156 144.140625 -0.859375 C 139.085938 -1.429688 134.789062 -2.539062 131.25 -4.1875 C 127.71875 -5.832031 124.695312 -8.132812 122.1875 -11.09375 C 119.6875 -14.050781 117 -17.910156 114.125 -22.671875 L 79.984375 -79.5 L 59.03125 -79.5 L 59.03125 -27.484375 C 59.03125 -23.785156 59.582031 -20.804688 60.6875 -18.546875 C 61.800781 -16.285156 63.300781 -14.578125 65.1875 -13.421875 C 67.082031 -12.273438 69.28125 -11.515625 71.78125 -11.140625 C 74.289062 -10.773438 76.941406 -10.59375 79.734375 -10.59375 L 83.0625 -10.59375 L 83.0625 0 L 9.609375 0 L 9.609375 -10.59375 L 12.8125 -10.59375 C 15.613281 -10.59375 18.265625 -10.773438 20.765625 -11.140625 C 23.273438 -11.515625 25.472656 -12.273438 27.359375 -13.421875 C 29.242188 -14.578125 30.738281 -16.285156 31.84375 -18.546875 C 32.957031 -20.804688 33.515625 -23.785156 33.515625 -27.484375 L 33.515625 -152.453125 C 33.515625 -156.148438 32.957031 -159.128906 31.84375 -161.390625 C 30.738281 -163.648438 29.242188 -165.394531 27.359375 -166.625 C 25.472656 -167.851562 23.273438 -168.648438 20.765625 -169.015625 C 18.265625 -169.390625 15.613281 -169.578125 12.8125 -169.578125 L 9.609375 -169.578125 L 9.609375 -180.1875 L 77.515625 -180.1875 C 99.367188 -180.1875 115.632812 -176.140625 126.3125 -168.046875 C 137 -159.953125 142.34375 -147.769531 142.34375 -131.5 C 142.34375 -124.757812 141.253906 -118.863281 139.078125 -113.8125 C 136.898438 -108.757812 134.046875 -104.382812 130.515625 -100.6875 C 126.984375 -96.988281 123 -93.90625 118.5625 -91.4375 C 114.125 -88.976562 109.6875 -87.007812 105.25 -85.53125 Z M 59.03125 -91.328125 L 76.78125 -91.328125 C 84.175781 -91.328125 90.335938 -92.144531 95.265625 -93.78125 C 100.191406 -95.425781 104.132812 -97.890625 107.09375 -101.171875 C 110.050781 -104.460938 112.164062 -108.570312 113.4375 -113.5 C 114.71875 -118.4375 115.359375 -124.191406 115.359375 -130.765625 C 115.359375 -137.503906 114.660156 -143.234375 113.265625 -147.953125 C 111.867188 -152.679688 109.609375 -156.546875 106.484375 -159.546875 C 103.359375 -162.546875 99.3125 -164.722656 94.34375 -166.078125 C 89.375 -167.429688 83.316406 -168.109375 76.171875 -168.109375 L 59.03125 -168.109375 Z M 59.03125 -91.328125 "/></g></g></g><g fill="#d0a85c" fill-opacity="1"><g transform="translate(647.641681, 311.624976)"><g><path d="M 91.328125 2.46875 C 81.378906 2.46875 72.460938 1.421875 64.578125 -0.671875 C 56.691406 -2.773438 50.015625 -6.101562 44.546875 -10.65625 C 39.085938 -15.21875 34.921875 -21.09375 32.046875 -28.28125 C 29.171875 -35.46875 27.734375 -44.195312 27.734375 -54.46875 L 27.734375 -152.453125 C 27.734375 -156.148438 27.175781 -159.128906 26.0625 -161.390625 C 24.957031 -163.648438 23.457031 -165.394531 21.5625 -166.625 C 19.675781 -167.851562 17.476562 -168.648438 14.96875 -169.015625 C 12.46875 -169.390625 9.820312 -169.578125 7.03125 -169.578125 L 3.828125 -169.578125 L 3.828125 -180.1875 L 77.28125 -180.1875 L 77.28125 -169.578125 L 73.953125 -169.578125 C 71.148438 -169.578125 68.472656 -169.375 65.921875 -168.96875 C 63.378906 -168.5625 61.179688 -167.71875 59.328125 -166.4375 C 57.484375 -165.164062 56.003906 -163.335938 54.890625 -160.953125 C 53.785156 -158.578125 53.234375 -155.414062 53.234375 -151.46875 L 53.234375 -53 C 53.234375 -45.6875 54.28125 -39.460938 56.375 -34.328125 C 58.476562 -29.191406 61.398438 -25.019531 65.140625 -21.8125 C 68.878906 -18.613281 73.3125 -16.273438 78.4375 -14.796875 C 83.570312 -13.316406 89.222656 -12.578125 95.390625 -12.578125 C 102.703125 -12.578125 109.007812 -13.5625 114.3125 -15.53125 C 119.613281 -17.5 124.007812 -20.226562 127.5 -23.71875 C 130.988281 -27.21875 133.570312 -31.367188 135.25 -36.171875 C 136.9375 -40.972656 137.78125 -46.253906 137.78125 -52.015625 L 137.78125 -152.453125 C 137.78125 -156.148438 137.222656 -159.128906 136.109375 -161.390625 C 135.003906 -163.648438 133.507812 -165.394531 131.625 -166.625 C 129.738281 -167.851562 127.539062 -168.648438 125.03125 -169.015625 C 122.519531 -169.390625 119.867188 -169.578125 117.078125 -169.578125 L 113.875 -169.578125 L 113.875 -180.1875 L 177.234375 -180.1875 L 177.234375 -169.578125 L 173.90625 -169.578125 C 171.101562 -169.578125 168.425781 -169.375 165.875 -168.96875 C 163.332031 -168.5625 161.132812 -167.71875 159.28125 -166.4375 C 157.4375 -165.164062 155.957031 -163.335938 154.84375 -160.953125 C 153.738281 -158.578125 153.1875 -155.414062 153.1875 -151.46875 L 153.1875 -51.515625 C 153.1875 -43.140625 151.851562 -35.601562 149.1875 -28.90625 C 146.519531 -22.207031 142.578125 -16.535156 137.359375 -11.890625 C 132.140625 -7.253906 125.664062 -3.703125 117.9375 -1.234375 C 110.21875 1.234375 101.347656 2.46875 91.328125 2.46875 Z M 91.328125 2.46875 "/></g></g></g><g fill="#d0a85c" fill-opacity="1"><g transform="translate(861.882937, 311.624976)"><g><path d="M 159.96875 0 L 159.96875 -10.59375 L 160.828125 -10.59375 C 163.546875 -10.59375 165.992188 -10.773438 168.171875 -11.140625 C 170.347656 -11.515625 172.195312 -12.253906 173.71875 -13.359375 C 175.238281 -14.472656 176.445312 -16.078125 177.34375 -18.171875 C 178.25 -20.273438 178.785156 -23.050781 178.953125 -26.5 L 178.953125 -161.328125 L 121.15625 0 L 107.46875 0 L 48.921875 -160.828125 L 48.921875 -28.71875 C 48.921875 -24.769531 49.332031 -21.601562 50.15625 -19.21875 C 50.976562 -16.84375 52.191406 -15.015625 53.796875 -13.734375 C 55.398438 -12.460938 57.332031 -11.617188 59.59375 -11.203125 C 61.851562 -10.796875 64.378906 -10.59375 67.171875 -10.59375 L 67.90625 -10.59375 L 67.90625 0 L 9.609375 0 L 9.609375 -10.59375 L 12.8125 -10.59375 C 15.613281 -10.59375 18.265625 -10.773438 20.765625 -11.140625 C 23.273438 -11.515625 25.472656 -12.273438 27.359375 -13.421875 C 29.242188 -14.578125 30.738281 -16.285156 31.84375 -18.546875 C 32.957031 -20.804688 33.515625 -23.785156 33.515625 -27.484375 L 33.515625 -152.453125 C 33.515625 -156.148438 32.957031 -159.128906 31.84375 -161.390625 C 30.738281 -163.648438 29.242188 -165.394531 27.359375 -166.625 C 25.472656 -167.851562 23.273438 -168.648438 20.765625 -169.015625 C 18.265625 -169.390625 15.613281 -169.578125 12.8125 -169.578125 L 9.609375 -169.578125 L 9.609375 -180.1875 L 67.171875 -180.1875 L 119.421875 -35.859375 L 171.1875 -180.1875 L 227.140625 -180.1875 L 227.140625 -169.578125 L 223.9375 -169.578125 C 221.0625 -169.578125 218.367188 -169.375 215.859375 -168.96875 C 213.359375 -168.5625 211.160156 -167.71875 209.265625 -166.4375 C 207.378906 -165.164062 205.898438 -163.335938 204.828125 -160.953125 C 203.765625 -158.578125 203.234375 -155.414062 203.234375 -151.46875 L 203.234375 -28.71875 C 203.234375 -24.769531 203.765625 -21.601562 204.828125 -19.21875 C 205.898438 -16.84375 207.378906 -15.015625 209.265625 -13.734375 C 211.160156 -12.460938 213.359375 -11.617188 215.859375 -11.203125 C 218.367188 -10.796875 221.0625 -10.59375 223.9375 -10.59375 L 227.140625 -10.59375 L 227.140625 0 Z M 159.96875 0 "/></g></g></g><g fill="#d0a85c" fill-opacity="1"><g transform="translate(1131.953963, 311.624976)"><g><path d="M 62.359375 2.46875 C 54.140625 2.46875 46.890625 1.601562 40.609375 -0.125 C 34.328125 -1.851562 29.066406 -4.253906 24.828125 -7.328125 C 20.597656 -10.410156 17.414062 -14.148438 15.28125 -18.546875 C 13.144531 -22.941406 12.078125 -27.769531 12.078125 -33.03125 C 12.078125 -38.125 13.65625 -42.226562 16.8125 -45.34375 C 19.976562 -48.46875 24.476562 -50.03125 30.3125 -50.03125 C 30.5625 -44.78125 31.363281 -39.726562 32.71875 -34.875 C 34.070312 -30.03125 36.101562 -25.757812 38.8125 -22.0625 C 41.53125 -18.363281 44.984375 -15.40625 49.171875 -13.1875 C 53.359375 -10.96875 58.410156 -9.859375 64.328125 -9.859375 C 75.671875 -9.859375 84.523438 -12.585938 90.890625 -18.046875 C 97.253906 -23.515625 100.4375 -31.382812 100.4375 -41.65625 C 100.4375 -46.257812 99.78125 -50.328125 98.46875 -53.859375 C 97.15625 -57.390625 94.976562 -60.65625 91.9375 -63.65625 C 88.894531 -66.65625 84.890625 -69.53125 79.921875 -72.28125 C 74.953125 -75.03125 68.769531 -77.925781 61.375 -80.96875 C 53.570312 -84.175781 46.753906 -87.609375 40.921875 -91.265625 C 35.085938 -94.921875 30.238281 -98.988281 26.375 -103.46875 C 22.507812 -107.945312 19.628906 -112.9375 17.734375 -118.4375 C 15.847656 -123.945312 14.90625 -130.148438 14.90625 -137.046875 C 14.90625 -144.273438 16.28125 -150.722656 19.03125 -156.390625 C 21.789062 -162.066406 25.632812 -166.851562 30.5625 -170.75 C 35.488281 -174.65625 41.320312 -177.632812 48.0625 -179.6875 C 54.800781 -181.738281 62.15625 -182.765625 70.125 -182.765625 C 77.6875 -182.765625 84.382812 -181.984375 90.21875 -180.421875 C 96.050781 -178.867188 100.976562 -176.773438 105 -174.140625 C 109.03125 -171.515625 112.09375 -168.492188 114.1875 -165.078125 C 116.28125 -161.671875 117.328125 -158.117188 117.328125 -154.421875 C 117.328125 -149.003906 115.539062 -144.914062 111.96875 -142.15625 C 108.394531 -139.40625 103.566406 -138.03125 97.484375 -138.03125 C 97.484375 -141.976562 97.007812 -145.859375 96.0625 -149.671875 C 95.125 -153.492188 93.546875 -156.90625 91.328125 -159.90625 C 89.109375 -162.90625 86.191406 -165.347656 82.578125 -167.234375 C 78.960938 -169.128906 74.484375 -170.078125 69.140625 -170.078125 C 64.296875 -170.078125 59.960938 -169.398438 56.140625 -168.046875 C 52.316406 -166.691406 49.085938 -164.757812 46.453125 -162.25 C 43.828125 -159.75 41.816406 -156.726562 40.421875 -153.1875 C 39.023438 -149.65625 38.328125 -145.710938 38.328125 -141.359375 C 38.328125 -136.347656 38.984375 -131.929688 40.296875 -128.109375 C 41.609375 -124.285156 43.804688 -120.832031 46.890625 -117.75 C 49.972656 -114.675781 54.019531 -111.757812 59.03125 -109 C 64.039062 -106.25 70.203125 -103.394531 77.515625 -100.4375 C 84.910156 -97.40625 91.503906 -94.203125 97.296875 -90.828125 C 103.085938 -87.460938 107.992188 -83.703125 112.015625 -79.546875 C 116.046875 -75.398438 119.128906 -70.757812 121.265625 -65.625 C 123.410156 -60.488281 124.484375 -54.675781 124.484375 -48.1875 C 124.484375 -40.21875 123.023438 -33.085938 120.109375 -26.796875 C 117.191406 -20.515625 113.019531 -15.195312 107.59375 -10.84375 C 102.164062 -6.488281 95.628906 -3.179688 87.984375 -0.921875 C 80.347656 1.335938 71.804688 2.46875 62.359375 2.46875 Z M 62.359375 2.46875 "/></g></g></g><g fill="#d0a85c" fill-opacity="1"><g transform="translate(1302.56668, 311.624976)"><g><path d="M 117.078125 0 L 117.078125 -10.59375 L 120.40625 -10.59375 C 123.28125 -10.59375 125.96875 -10.796875 128.46875 -11.203125 C 130.976562 -11.617188 133.15625 -12.460938 135 -13.734375 C 136.851562 -15.015625 138.332031 -16.84375 139.4375 -19.21875 C 140.550781 -21.601562 141.109375 -24.769531 141.109375 -28.71875 L 141.109375 -87.875 L 59.03125 -87.875 L 59.03125 -28.71875 C 59.03125 -24.769531 59.582031 -21.601562 60.6875 -19.21875 C 61.800781 -16.84375 63.28125 -15.015625 65.125 -13.734375 C 66.976562 -12.460938 69.175781 -11.617188 71.71875 -11.203125 C 74.269531 -10.796875 76.941406 -10.59375 79.734375 -10.59375 L 83.0625 -10.59375 L 83.0625 0 L 9.609375 0 L 9.609375 -10.59375 L 12.8125 -10.59375 C 15.6875 -10.59375 18.378906 -10.796875 20.890625 -11.203125 C 23.398438 -11.617188 25.597656 -12.460938 27.484375 -13.734375 C 29.367188 -15.015625 30.84375 -16.84375 31.90625 -19.21875 C 32.976562 -21.601562 33.515625 -24.769531 33.515625 -28.71875 L 33.515625 -152.453125 C 33.515625 -156.148438 32.957031 -159.128906 31.84375 -161.390625 C 30.738281 -163.648438 29.242188 -165.394531 27.359375 -166.625 C 25.472656 -167.851562 23.273438 -168.648438 20.765625 -169.015625 C 18.265625 -169.390625 15.613281 -169.578125 12.8125 -169.578125 L 9.609375 -169.578125 L 9.609375 -180.1875 L 83.0625 -180.1875 L 83.0625 -169.578125 L 79.734375 -169.578125 C 76.941406 -169.578125 74.269531 -169.375 71.71875 -168.96875 C 69.175781 -168.5625 66.976562 -167.71875 65.125 -166.4375 C 63.28125 -165.164062 61.800781 -163.335938 60.6875 -160.953125 C 59.582031 -158.578125 59.03125 -155.414062 59.03125 -151.46875 L 59.03125 -100.4375 L 141.109375 -100.4375 L 141.109375 -151.46875 C 141.109375 -155.414062 140.550781 -158.578125 139.4375 -160.953125 C 138.332031 -163.335938 136.851562 -165.164062 135 -166.4375 C 133.15625 -167.71875 130.976562 -168.5625 128.46875 -168.96875 C 125.96875 -169.375 123.28125 -169.578125 120.40625 -169.578125 L 117.078125 -169.578125 L 117.078125 -180.1875 L 190.53125 -180.1875 L 190.53125 -169.578125 L 187.328125 -169.578125 C 184.453125 -169.578125 181.757812 -169.375 179.25 -168.96875 C 176.75 -168.5625 174.550781 -167.71875 172.65625 -166.4375 C 170.769531 -165.164062 169.289062 -163.335938 168.21875 -160.953125 C 167.15625 -158.578125 166.625 -155.414062 166.625 -151.46875 L 166.625 -27.484375 C 166.625 -23.785156 167.175781 -20.804688 168.28125 -18.546875 C 169.394531 -16.285156 170.894531 -14.578125 172.78125 -13.421875 C 174.675781 -12.273438 176.875 -11.515625 179.375 -11.140625 C 181.882812 -10.773438 184.535156 -10.59375 187.328125 -10.59375 L 190.53125 -10.59375 L 190.53125 0 Z M 117.078125 0 "/></g></g></g><g fill="#d0a85c" fill-opacity="1"><g transform="translate(1536.034004, 311.624976)"><g><path d="M 9.609375 0 L 9.609375 -10.59375 L 12.8125 -10.59375 C 15.6875 -10.59375 18.378906 -10.796875 20.890625 -11.203125 C 23.398438 -11.617188 25.597656 -12.460938 27.484375 -13.734375 C 29.367188 -15.015625 30.84375 -16.84375 31.90625 -19.21875 C 32.976562 -21.601562 33.515625 -24.769531 33.515625 -28.71875 L 33.515625 -151.46875 C 33.515625 -155.414062 32.976562 -158.578125 31.90625 -160.953125 C 30.84375 -163.335938 29.367188 -165.164062 27.484375 -166.4375 C 25.597656 -167.71875 23.398438 -168.5625 20.890625 -168.96875 C 18.378906 -169.375 15.6875 -169.578125 12.8125 -169.578125 L 9.609375 -169.578125 L 9.609375 -180.1875 L 83.0625 -180.1875 L 83.0625 -169.578125 L 79.734375 -169.578125 C 76.941406 -169.578125 74.269531 -169.375 71.71875 -168.96875 C 69.175781 -168.5625 66.976562 -167.71875 65.125 -166.4375 C 63.28125 -165.164062 61.800781 -163.335938 60.6875 -160.953125 C 59.582031 -158.578125 59.03125 -155.414062 59.03125 -151.46875 L 59.03125 -28.71875 C 59.03125 -24.769531 59.582031 -21.601562 60.6875 -19.21875 C 61.800781 -16.84375 63.28125 -15.015625 65.125 -13.734375 C 66.976562 -12.460938 69.175781 -11.617188 71.71875 -11.203125 C 74.269531 -10.796875 76.941406 -10.59375 79.734375 -10.59375 L 83.0625 -10.59375 L 83.0625 0 Z M 9.609375 0 "/></g></g></g><g fill="#d0a85c" fill-opacity="1"><g transform="translate(1662.032165, 311.624976)"><g><path d="M 59.03125 -12.578125 L 107.71875 -12.578125 C 111.738281 -12.578125 115.164062 -13.128906 118 -14.234375 C 120.84375 -15.347656 123.207031 -16.847656 125.09375 -18.734375 C 126.976562 -20.617188 128.457031 -22.8125 129.53125 -25.3125 C 130.601562 -27.820312 131.34375 -30.476562 131.75 -33.28125 L 133.46875 -44.125 L 146.65625 -44.125 L 144.9375 0 L 9.609375 0 L 9.609375 -10.59375 L 12.8125 -10.59375 C 15.613281 -10.59375 18.265625 -10.773438 20.765625 -11.140625 C 23.273438 -11.515625 25.472656 -12.273438 27.359375 -13.421875 C 29.242188 -14.578125 30.738281 -16.285156 31.84375 -18.546875 C 32.957031 -20.804688 33.515625 -23.785156 33.515625 -27.484375 L 33.515625 -151.46875 C 33.515625 -155.414062 32.976562 -158.578125 31.90625 -160.953125 C 30.84375 -163.335938 29.367188 -165.164062 27.484375 -166.4375 C 25.597656 -167.71875 23.398438 -168.5625 20.890625 -168.96875 C 18.378906 -169.375 15.6875 -169.578125 12.8125 -169.578125 L 9.609375 -169.578125 L 9.609375 -180.1875 L 136.796875 -180.1875 L 138.03125 -136.0625 L 124.96875 -136.0625 L 123.734375 -146.90625 C 123.410156 -149.695312 122.773438 -152.34375 121.828125 -154.84375 C 120.878906 -157.351562 119.519531 -159.550781 117.75 -161.4375 C 115.988281 -163.332031 113.769531 -164.832031 111.09375 -165.9375 C 108.425781 -167.050781 105.207031 -167.609375 101.4375 -167.609375 L 59.03125 -167.609375 L 59.03125 -100.4375 L 119.921875 -100.4375 L 119.921875 -88.125 L 59.03125 -88.125 Z M 59.03125 -12.578125 "/></g></g></g><g fill="#d0a85c" fill-opacity="1"><g transform="translate(1852.610517, 311.624976)"><g><path d="M 9.609375 0 L 9.609375 -10.59375 L 12.8125 -10.59375 C 15.6875 -10.59375 18.378906 -10.796875 20.890625 -11.203125 C 23.398438 -11.617188 25.597656 -12.460938 27.484375 -13.734375 C 29.367188 -15.015625 30.84375 -16.84375 31.90625 -19.21875 C 32.976562 -21.601562 33.515625 -24.769531 33.515625 -28.71875 L 33.515625 -151.46875 C 33.515625 -155.414062 32.976562 -158.578125 31.90625 -160.953125 C 30.84375 -163.335938 29.367188 -165.164062 27.484375 -166.4375 C 25.597656 -167.71875 23.398438 -168.5625 20.890625 -168.96875 C 18.378906 -169.375 15.6875 -169.578125 12.8125 -169.578125 L 9.609375 -169.578125 L 9.609375 -180.1875 L 83.0625 -180.1875 L 83.0625 -169.578125 L 79.734375 -169.578125 C 76.941406 -169.578125 74.289062 -169.390625 71.78125 -169.015625 C 69.28125 -168.648438 67.082031 -167.851562 65.1875 -166.625 C 63.300781 -165.394531 61.800781 -163.648438 60.6875 -161.390625 C 59.582031 -159.128906 59.03125 -156.148438 59.03125 -152.453125 L 59.03125 -12.578125 L 108.828125 -12.578125 C 112.609375 -12.578125 115.832031 -13.253906 118.5 -14.609375 C 121.164062 -15.960938 123.363281 -17.726562 125.09375 -19.90625 C 126.820312 -22.082031 128.15625 -24.523438 129.09375 -27.234375 C 130.039062 -29.941406 130.679688 -32.65625 131.015625 -35.375 L 133.46875 -54.234375 L 146.65625 -54.234375 L 144.9375 0 Z M 9.609375 0 "/></g></g></g><g fill="#d0a85c" fill-opacity="1"><g transform="translate(2043.18869, 311.624976)"><g><path d="M 169.09375 -90.34375 C 169.09375 -76.539062 167.363281 -64.070312 163.90625 -52.9375 C 160.457031 -41.800781 155.320312 -32.304688 148.5 -24.453125 C 141.6875 -16.609375 133.144531 -10.570312 122.875 -6.34375 C 112.601562 -2.113281 100.609375 0 86.890625 0 L 9.609375 0 L 9.609375 -10.59375 L 12.8125 -10.59375 C 15.6875 -10.59375 18.378906 -10.796875 20.890625 -11.203125 C 23.398438 -11.617188 25.597656 -12.460938 27.484375 -13.734375 C 29.367188 -15.015625 30.84375 -16.84375 31.90625 -19.21875 C 32.976562 -21.601562 33.515625 -24.769531 33.515625 -28.71875 L 33.515625 -152.453125 C 33.515625 -156.148438 32.957031 -159.128906 31.84375 -161.390625 C 30.738281 -163.648438 29.242188 -165.394531 27.359375 -166.625 C 25.472656 -167.851562 23.273438 -168.648438 20.765625 -169.015625 C 18.265625 -169.390625 15.613281 -169.578125 12.8125 -169.578125 L 9.609375 -169.578125 L 9.609375 -180.1875 L 86.890625 -180.1875 C 99.867188 -180.1875 111.453125 -178.191406 121.640625 -174.203125 C 131.828125 -170.222656 140.429688 -164.410156 147.453125 -156.765625 C 154.484375 -149.128906 159.847656 -139.722656 163.546875 -128.546875 C 167.242188 -117.367188 169.09375 -104.632812 169.09375 -90.34375 Z M 80.96875 -12.8125 C 91 -12.8125 99.769531 -14.515625 107.28125 -17.921875 C 114.800781 -21.335938 121.066406 -26.332031 126.078125 -32.90625 C 131.085938 -39.476562 134.84375 -47.570312 137.34375 -57.1875 C 139.851562 -66.800781 141.109375 -77.851562 141.109375 -90.34375 C 141.109375 -115.394531 136.117188 -134.535156 126.140625 -147.765625 C 116.160156 -160.992188 101.1875 -167.609375 81.21875 -167.609375 L 59.03125 -167.609375 L 59.03125 -12.8125 Z M 80.96875 -12.8125 "/></g></g></g></svg>