<svg xmlns="http://www.w3.org/2000/svg" width="430" height="105" viewBox="0 0 430 105">

<rect width="430" height="105" fill="none"/>
<g fill="#D4AF37">
<path d="M 102 62 L 101 63 L 100 64 L 99 65 L 98 65 L 97 66 L 96 67 L 95 68 L 94 69 L 93 70 L 92 71 L 91 71 L 90 72 L 89 73 L 88 74 L 87 75 L 86 76 L 85 77 L 84 78 L 83 78 L 82 79 L 81 80 L 80 81 L 79 82 L 78 83 L 77 83 L 76 84 L 76 85 L 75 86 L 74 86 L 73 87 L 72 88 L 71 89 L 70 90 L 69 90 L 68 91 L 67 92 L 66 93 L 65 94 L 64 95 L 64 96 L 65 97 L 66 97 L 67 98 L 68 99 L 69 100 L 70 101 L 71 102 L 72 102 L 73 103 L 74 104 L 75 104 L 76 104 L 77 104 L 78 104 L 79 104 L 80 104 L 81 103 L 82 102 L 83 102 L 84 101 L 85 100 L 86 99 L 87 98 L 88 97 L 89 97 L 90 96 L 91 95 L 92 94 L 93 93 L 94 92 L 95 91 L 96 91 L 97 90 L 98 89 L 99 88 L 100 87 L 101 86 L 102 85 L 103 84 L 104 84 L 105 83 L 106 82 L 107 81 L 108 80 L 109 79 L 110 78 L 111 78 L 112 77 L 113 76 L 114 75 L 115 74 L 116 73 L 117 72 L 118 71 L 119 71 L 120 70 L 121 69 L 122 68 L 123 67 L 124 66 L 125 65 L 126 65 L 127 64 L 128 63 L 129 62 L 128 62 L 127 62 L 126 62 L 125 62 L 124 62 L 123 62 L 122 62 L 121 62 L 120 62 L 119 62 L 118 62 L 117 62 L 116 62 L 115 62 L 114 62 L 113 62 L 112 62 L 111 62 L 110 62 L 109 62 L 108 62 L 107 62 L 106 62 L 105 62 L 104 62 L 103 62 Z" fill-rule="evenodd" />
<path d="M 371 51 L 371 52 L 370 53 L 370 54 L 370 55 L 370 56 L 370 57 L 370 58 L 370 59 L 370 60 L 370 61 L 371 62 L 371 63 L 371 64 L 371 65 L 371 66 L 371 67 L 371 68 L 371 69 L 371 70 L 371 71 L 371 72 L 371 73 L 371 74 L 372 74 L 373 74 L 374 74 L 375 74 L 376 74 L 377 74 L 378 74 L 379 74 L 380 74 L 381 74 L 382 74 L 383 74 L 384 74 L 385 74 L 386 74 L 387 74 L 388 74 L 389 74 L 390 74 L 390 73 L 390 72 L 390 71 L 389 71 L 388 71 L 387 71 L 386 71 L 385 71 L 384 71 L 383 71 L 382 71 L 381 71 L 380 71 L 379 71 L 378 71 L 377 71 L 376 71 L 375 70 L 375 69 L 375 68 L 375 67 L 375 66 L 376 65 L 377 65 L 378 65 L 379 65 L 380 64 L 381 64 L 382 64 L 383 64 L 384 64 L 385 64 L 386 64 L 387 64 L 388 64 L 388 63 L 388 62 L 387 61 L 386 61 L 385 61 L 384 61 L 383 61 L 382 61 L 381 61 L 380 61 L 379 61 L 378 61 L 377 61 L 376 61 L 375 60 L 375 59 L 375 58 L 375 57 L 375 56 L 376 55 L 377 55 L 378 55 L 379 55 L 380 55 L 381 55 L 382 55 L 383 55 L 384 55 L 385 55 L 386 55 L 387 55 L 388 55 L 389 55 L 390 54 L 390 53 L 390 52 L 390 51 L 389 51 L 388 51 L 387 51 L 386 51 L 385 51 L 384 51 L 383 51 L 382 51 L 381 51 L 380 51 L 379 51 L 378 51 L 377 51 L 376 51 L 375 51 L 374 51 L 373 51 L 372 51 Z" fill-rule="evenodd" />
<path d="M 339 51 L 339 52 L 339 53 L 339 54 L 339 55 L 339 56 L 339 57 L 339 58 L 339 59 L 339 60 L 339 61 L 339 62 L 339 63 L 339 64 L 339 65 L 339 66 L 339 67 L 339 68 L 339 69 L 339 70 L 339 71 L 339 72 L 339 73 L 339 74 L 340 74 L 341 74 L 342 74 L 343 74 L 343 73 L 343 72 L 343 71 L 343 70 L 343 69 L 343 68 L 344 67 L 345 66 L 346 66 L 347 66 L 348 66 L 349 66 L 350 66 L 351 67 L 352 68 L 353 69 L 354 70 L 354 71 L 355 72 L 356 73 L 357 74 L 358 74 L 359 74 L 360 74 L 361 74 L 362 74 L 362 73 L 361 72 L 360 71 L 359 70 L 358 69 L 357 68 L 356 67 L 356 66 L 357 65 L 358 65 L 359 65 L 360 64 L 361 63 L 362 62 L 362 61 L 362 60 L 362 59 L 362 58 L 362 57 L 362 56 L 362 55 L 361 54 L 360 53 L 359 52 L 358 52 L 357 52 L 356 51 L 355 51 L 354 51 L 353 51 L 352 51 L 351 51 L 350 51 L 349 51 L 348 51 L 347 51 L 346 51 L 345 51 L 344 51 L 343 51 L 342 51 L 341 51 L 340 51 Z M 344 56 L 345 55 L 346 55 L 347 55 L 348 55 L 349 55 L 350 55 L 351 55 L 352 55 L 353 55 L 354 55 L 355 55 L 356 55 L 357 56 L 357 57 L 358 58 L 358 59 L 357 60 L 357 61 L 356 62 L 355 63 L 354 63 L 353 63 L 352 63 L 351 63 L 350 63 L 349 63 L 348 63 L 347 63 L 346 63 L 345 63 L 344 62 L 344 61 L 344 60 L 344 59 L 344 58 L 344 57 Z" fill-rule="evenodd" />
<path d="M 326 51 L 326 52 L 326 53 L 326 54 L 326 55 L 326 56 L 326 57 L 326 58 L 326 59 L 326 60 L 326 61 L 326 62 L 326 63 L 326 64 L 326 65 L 326 66 L 326 67 L 326 68 L 326 69 L 326 70 L 326 71 L 326 72 L 326 73 L 326 74 L 327 74 L 328 74 L 329 74 L 330 74 L 330 73 L 330 72 L 330 71 L 330 70 L 330 69 L 330 68 L 330 67 L 330 66 L 330 65 L 330 64 L 330 63 L 330 62 L 330 61 L 330 60 L 330 59 L 330 58 L 330 57 L 330 56 L 330 55 L 330 54 L 330 53 L 330 52 L 330 51 L 329 51 L 328 51 L 327 51 Z" fill-rule="evenodd" />
<path d="M 281 51 L 281 52 L 281 53 L 282 54 L 282 55 L 282 56 L 283 57 L 283 58 L 283 59 L 283 60 L 284 61 L 284 62 L 284 63 L 285 64 L 285 65 L 285 66 L 286 67 L 286 68 L 286 69 L 287 70 L 287 71 L 287 72 L 288 73 L 288 74 L 289 74 L 290 74 L 291 74 L 292 74 L 293 74 L 294 73 L 294 72 L 294 71 L 295 70 L 295 69 L 295 68 L 296 67 L 296 66 L 296 65 L 297 64 L 297 63 L 297 62 L 298 61 L 298 60 L 298 59 L 299 58 L 300 58 L 301 59 L 301 60 L 301 61 L 302 62 L 302 63 L 302 64 L 302 65 L 303 66 L 303 67 L 304 68 L 304 69 L 304 70 L 305 71 L 305 72 L 305 73 L 306 74 L 307 74 L 308 74 L 309 74 L 310 74 L 311 74 L 311 73 L 311 72 L 312 71 L 312 70 L 312 69 L 313 68 L 313 67 L 313 66 L 314 65 L 314 64 L 314 63 L 315 62 L 315 61 L 315 60 L 316 59 L 316 58 L 316 57 L 317 56 L 317 55 L 318 54 L 318 53 L 318 52 L 318 51 L 317 51 L 316 51 L 315 51 L 314 51 L 313 52 L 313 53 L 313 54 L 312 55 L 312 56 L 312 57 L 312 58 L 311 59 L 311 60 L 311 61 L 310 62 L 310 63 L 310 64 L 310 65 L 309 66 L 309 67 L 308 68 L 307 67 L 307 66 L 307 65 L 306 64 L 306 63 L 306 62 L 305 61 L 305 60 L 305 59 L 304 58 L 304 57 L 304 56 L 303 55 L 303 54 L 303 53 L 302 52 L 302 51 L 301 51 L 300 51 L 299 51 L 298 51 L 297 51 L 297 52 L 297 53 L 296 54 L 296 55 L 296 56 L 295 57 L 295 58 L 294 59 L 294 60 L 294 61 L 293 62 L 293 63 L 293 64 L 292 65 L 292 66 L 292 67 L 291 68 L 290 67 L 290 66 L 290 65 L 289 64 L 289 63 L 289 62 L 288 61 L 288 60 L 288 59 L 287 58 L 287 57 L 287 56 L 286 55 L 286 54 L 286 53 L 286 52 L 285 51 L 284 51 L 283 51 L 282 51 Z" fill-rule="evenodd" />
<path d="M 250 51 L 250 52 L 250 53 L 250 54 L 250 55 L 250 56 L 250 57 L 250 58 L 250 59 L 250 60 L 250 61 L 250 62 L 250 63 L 250 64 L 250 65 L 250 66 L 250 67 L 250 68 L 250 69 L 250 70 L 250 71 L 250 72 L 250 73 L 250 74 L 251 74 L 252 74 L 253 74 L 254 74 L 255 74 L 256 74 L 257 74 L 258 74 L 259 74 L 260 74 L 261 74 L 262 74 L 263 74 L 264 74 L 265 74 L 266 74 L 267 74 L 268 73 L 269 73 L 270 73 L 271 72 L 272 71 L 273 70 L 274 69 L 274 68 L 275 67 L 275 66 L 275 65 L 275 64 L 275 63 L 275 62 L 275 61 L 275 60 L 275 59 L 274 58 L 274 57 L 273 56 L 273 55 L 272 54 L 271 53 L 270 53 L 269 52 L 268 52 L 267 52 L 266 52 L 265 51 L 264 51 L 263 51 L 262 51 L 261 51 L 260 51 L 259 51 L 258 51 L 257 51 L 256 51 L 255 51 L 254 51 L 253 51 L 252 51 L 251 51 Z M 254 56 L 255 55 L 256 55 L 257 55 L 258 55 L 259 55 L 260 55 L 261 55 L 262 55 L 263 55 L 264 55 L 265 55 L 266 55 L 267 56 L 268 57 L 269 58 L 270 59 L 270 60 L 270 61 L 271 62 L 271 63 L 270 64 L 270 65 L 270 66 L 270 67 L 269 68 L 268 69 L 267 70 L 266 71 L 265 71 L 264 71 L 263 71 L 262 71 L 261 71 L 260 71 L 259 71 L 258 71 L 257 71 L 256 71 L 255 71 L 254 70 L 254 69 L 254 68 L 254 67 L 254 66 L 254 65 L 254 64 L 254 63 L 254 62 L 254 61 L 254 60 L 254 59 L 254 58 L 254 57 Z" fill-rule="evenodd" />
<path d="M 222 51 L 222 52 L 222 53 L 222 54 L 222 55 L 222 56 L 222 57 L 222 58 L 222 59 L 222 60 L 222 61 L 222 62 L 222 63 L 222 64 L 222 65 L 222 66 L 222 67 L 222 68 L 222 69 L 222 70 L 222 71 L 222 72 L 222 73 L 222 74 L 223 74 L 224 74 L 225 74 L 226 74 L 227 74 L 228 74 L 229 74 L 230 74 L 231 74 L 232 74 L 233 74 L 234 74 L 235 74 L 236 74 L 237 74 L 238 74 L 239 74 L 240 74 L 241 74 L 242 74 L 242 73 L 242 72 L 241 71 L 240 71 L 239 71 L 238 71 L 237 71 L 236 71 L 235 71 L 234 71 L 233 71 L 232 71 L 231 71 L 230 71 L 229 71 L 228 71 L 227 70 L 226 69 L 226 68 L 227 67 L 227 66 L 227 65 L 227 64 L 227 63 L 227 62 L 227 61 L 227 60 L 227 59 L 227 58 L 227 57 L 227 56 L 227 55 L 227 54 L 227 53 L 227 52 L 226 51 L 225 51 L 224 51 L 223 51 Z" fill-rule="evenodd" />
<path d="M 158 51 L 157 52 L 156 52 L 155 53 L 154 53 L 153 54 L 152 55 L 151 56 L 151 57 L 150 58 L 150 59 L 150 60 L 150 61 L 150 62 L 150 63 L 150 64 L 150 65 L 150 66 L 150 67 L 151 68 L 151 69 L 152 70 L 152 71 L 153 72 L 154 72 L 155 73 L 156 73 L 157 74 L 158 74 L 159 74 L 160 75 L 161 75 L 162 75 L 163 75 L 164 75 L 165 75 L 166 75 L 167 75 L 168 75 L 169 75 L 170 74 L 171 74 L 172 74 L 173 74 L 174 74 L 175 73 L 176 73 L 176 72 L 176 71 L 176 70 L 176 69 L 176 68 L 176 67 L 176 66 L 176 65 L 176 64 L 176 63 L 175 62 L 174 62 L 173 62 L 172 62 L 171 62 L 170 62 L 169 62 L 168 62 L 167 62 L 166 62 L 165 63 L 165 64 L 165 65 L 166 65 L 167 65 L 168 65 L 169 65 L 170 65 L 171 66 L 171 67 L 171 68 L 171 69 L 171 70 L 170 71 L 169 71 L 168 71 L 167 72 L 166 72 L 165 72 L 164 72 L 163 72 L 162 71 L 161 71 L 160 71 L 159 71 L 158 70 L 157 69 L 156 68 L 155 67 L 155 66 L 155 65 L 154 64 L 154 63 L 154 62 L 155 61 L 155 60 L 155 59 L 156 58 L 157 57 L 158 56 L 159 55 L 160 55 L 161 55 L 162 54 L 163 54 L 164 54 L 165 54 L 166 54 L 167 54 L 168 54 L 169 54 L 170 54 L 171 55 L 172 55 L 173 55 L 174 55 L 174 54 L 174 53 L 174 52 L 174 51 L 173 51 L 172 51 L 171 51 L 170 51 L 169 51 L 168 51 L 167 51 L 166 51 L 165 51 L 164 51 L 163 51 L 162 51 L 161 51 L 160 51 L 159 51 Z" fill-rule="evenodd" />
<path d="M 197 50 L 196 51 L 195 51 L 194 51 L 193 51 L 192 51 L 191 52 L 190 52 L 189 53 L 188 53 L 187 54 L 186 55 L 185 56 L 185 57 L 184 58 L 184 59 L 184 60 L 184 61 L 184 62 L 184 63 L 184 64 L 184 65 L 184 66 L 184 67 L 185 68 L 185 69 L 186 70 L 186 71 L 187 72 L 188 73 L 189 73 L 190 74 L 191 74 L 192 74 L 193 74 L 194 75 L 195 75 L 196 75 L 197 75 L 198 75 L 199 75 L 200 75 L 201 75 L 202 75 L 203 75 L 204 74 L 205 74 L 206 74 L 207 73 L 208 73 L 209 72 L 210 72 L 211 71 L 211 70 L 212 69 L 212 68 L 213 67 L 213 66 L 213 65 L 213 64 L 213 63 L 213 62 L 213 61 L 213 60 L 213 59 L 213 58 L 212 57 L 212 56 L 211 55 L 210 54 L 209 53 L 208 53 L 207 52 L 206 52 L 205 51 L 204 51 L 203 51 L 202 51 L 201 51 L 200 51 L 199 50 L 198 50 Z M 194 55 L 195 54 L 196 54 L 197 54 L 198 54 L 199 54 L 200 54 L 201 54 L 202 54 L 203 55 L 204 55 L 205 56 L 206 57 L 207 58 L 208 59 L 208 60 L 208 61 L 209 62 L 209 63 L 208 64 L 208 65 L 208 66 L 208 67 L 207 68 L 206 69 L 205 70 L 204 71 L 203 71 L 202 71 L 201 72 L 200 72 L 199 72 L 198 72 L 197 72 L 196 72 L 195 71 L 194 71 L 193 71 L 192 70 L 191 69 L 190 68 L 189 67 L 189 66 L 188 65 L 188 64 L 188 63 L 188 62 L 188 61 L 189 60 L 189 59 L 190 58 L 190 57 L 191 56 L 192 56 L 193 55 Z" fill-rule="evenodd" />
<path d="M 96 32 L 95 33 L 94 34 L 93 35 L 92 35 L 91 36 L 90 37 L 89 38 L 88 39 L 87 40 L 86 41 L 85 42 L 84 43 L 83 44 L 82 45 L 81 46 L 80 47 L 79 48 L 78 49 L 77 50 L 76 51 L 75 52 L 74 53 L 73 53 L 72 54 L 71 55 L 70 56 L 69 57 L 68 58 L 69 59 L 70 60 L 71 60 L 72 61 L 73 62 L 74 62 L 75 63 L 76 64 L 77 64 L 78 65 L 79 66 L 80 66 L 81 66 L 82 65 L 83 64 L 84 64 L 85 63 L 86 62 L 87 61 L 88 60 L 89 59 L 90 58 L 91 57 L 92 57 L 93 56 L 94 56 L 95 56 L 96 56 L 97 56 L 98 56 L 99 56 L 100 56 L 101 56 L 102 56 L 103 56 L 104 56 L 105 56 L 106 56 L 107 56 L 108 56 L 109 56 L 110 56 L 111 56 L 112 56 L 113 56 L 114 56 L 115 56 L 116 56 L 117 56 L 118 56 L 119 56 L 120 56 L 121 56 L 120 55 L 119 54 L 118 53 L 117 52 L 116 51 L 115 50 L 114 49 L 113 48 L 112 47 L 111 46 L 110 45 L 109 44 L 108 43 L 107 42 L 106 41 L 105 40 L 104 39 L 103 38 L 102 37 L 101 36 L 100 35 L 99 34 L 98 33 L 97 32 Z" fill-rule="evenodd" />
<path d="M 58 31 L 57 32 L 56 33 L 55 34 L 54 35 L 53 36 L 52 37 L 51 37 L 50 38 L 49 39 L 48 40 L 47 41 L 47 42 L 46 43 L 45 43 L 44 44 L 43 45 L 42 46 L 41 47 L 40 48 L 39 49 L 38 50 L 37 51 L 36 52 L 35 53 L 34 53 L 33 54 L 32 55 L 31 56 L 30 56 L 29 57 L 28 58 L 27 59 L 26 60 L 25 61 L 24 62 L 24 63 L 25 64 L 26 64 L 27 65 L 28 66 L 29 67 L 30 68 L 31 69 L 32 69 L 33 70 L 34 71 L 35 72 L 36 73 L 37 74 L 38 75 L 39 75 L 40 76 L 41 77 L 42 78 L 43 79 L 44 80 L 45 81 L 46 81 L 47 82 L 48 83 L 49 84 L 50 85 L 51 86 L 52 86 L 53 87 L 54 88 L 55 89 L 56 90 L 57 91 L 58 91 L 59 91 L 60 90 L 61 89 L 62 89 L 63 88 L 64 87 L 65 86 L 66 85 L 67 84 L 68 83 L 69 83 L 70 82 L 71 81 L 72 80 L 71 79 L 70 79 L 69 78 L 68 77 L 67 77 L 66 76 L 65 75 L 64 75 L 63 74 L 62 73 L 61 73 L 60 72 L 59 71 L 58 71 L 57 70 L 56 69 L 55 69 L 54 68 L 53 67 L 52 68 L 51 67 L 50 66 L 50 65 L 51 64 L 52 63 L 53 63 L 54 62 L 55 61 L 56 60 L 57 59 L 58 58 L 59 57 L 60 56 L 61 55 L 62 54 L 63 53 L 64 52 L 65 51 L 66 50 L 67 49 L 68 48 L 69 48 L 70 47 L 71 46 L 72 45 L 73 44 L 74 43 L 75 42 L 76 41 L 77 40 L 78 39 L 79 39 L 80 38 L 81 37 L 82 36 L 83 35 L 84 34 L 85 33 L 86 32 L 87 31 L 86 31 L 85 31 L 84 31 L 83 31 L 82 31 L 81 31 L 80 31 L 79 31 L 78 31 L 77 31 L 76 31 L 75 31 L 74 31 L 73 31 L 72 31 L 71 31 L 70 31 L 69 31 L 68 31 L 67 31 L 66 31 L 65 31 L 64 31 L 63 31 L 62 31 L 61 31 L 60 31 L 59 31 Z" fill-rule="evenodd" />
</g>
</svg>